<?xml version="1.0" standalone="no"?>
<!DOCTYPE svg PUBLIC "-//W3C//DTD SVG 20010904//EN"
 "http://www.w3.org/TR/2001/REC-SVG-20010904/DTD/svg10.dtd">
<svg version="1.0" xmlns="http://www.w3.org/2000/svg"
 width="512.000000pt" height="512.000000pt" viewBox="0 0 512.000000 512.000000"
 preserveAspectRatio="xMidYMid meet">
<metadata>
Created by potrace 1.16, written by Peter Selinger 2001-2019
</metadata>
<g transform="translate(0.000000,512.000000) scale(0.100000,-0.100000)"
fill="#000000" stroke="none">
<path d="M2269 4985 c-755 -92 -1413 -514 -1807 -1160 -129 -210 -242 -490
-296 -731 -96 -422 -71 -901 68 -1311 77 -227 164 -403 294 -593 104 -152 167
-226 306 -365 358 -356 807 -587 1311 -676 171 -30 510 -37 695 -15 823 101
1535 607 1900 1351 86 175 133 302 176 475 47 191 64 319 71 525 6 202 -5 352
-42 543 -189 977 -971 1752 -1950 1931 -229 42 -509 52 -726 26z m416 -25
c494 -32 924 -190 1314 -483 116 -87 298 -261 395 -377 396 -474 594 -1076
555 -1689 -94 -1495 -1516 -2543 -2969 -2190 -593 145 -1109 511 -1450 1029
-78 119 -208 383 -254 517 -132 385 -167 795 -100 1193 81 483 315 936 664
1290 425 429 1000 686 1600 713 36 2 72 4 80 5 8 1 83 -3 165 -8z"/>
<path d="M2430 4923 c-731 -41 -1393 -406 -1816 -1003 -443 -624 -553 -1446
-292 -2165 83 -228 230 -489 382 -680 139 -173 356 -370 550 -497 633 -416
1442 -502 2148 -227 462 180 859 503 1130 919 681 1042 432 2436 -567 3182
-374 280 -784 433 -1255 468 -130 10 -160 10 -280 3z m407 -88 c306 -39 625
-149 884 -305 582 -351 970 -916 1090 -1585 21 -114 24 -162 24 -385 0 -287
-15 -405 -81 -633 -235 -817 -915 -1447 -1744 -1616 -427 -87 -884 -50 -1276
104 -995 389 -1586 1368 -1463 2420 107 906 763 1675 1646 1929 103 30 296 68
403 79 98 11 409 6 517 -8z"/>
<path d="M2560 4669 c0 -46 -3 -108 -6 -136 l-7 -53 32 0 c31 0 31 0 31 55 l0
55 60 0 c52 0 60 2 60 19 0 16 -10 20 -60 26 -58 7 -60 8 -60 36 l0 29 70 0
c63 0 70 2 70 20 0 15 -7 20 -27 20 -16 0 -58 3 -95 7 l-68 6 0 -84z"/>
<path d="M2271 4714 c-51 -42 -61 -124 -24 -196 28 -56 131 -79 169 -37 16 18
20 19 30 4 14 -19 48 -9 40 12 -3 8 -6 40 -6 70 l0 56 -56 -6 c-64 -7 -67 -8
-58 -31 4 -10 17 -16 35 -16 34 0 37 -12 9 -40 -12 -12 -33 -20 -55 -20 -29 0
-39 6 -55 33 -40 66 -18 141 46 153 24 5 37 1 53 -15 22 -22 71 -29 71 -10 0
6 -13 24 -29 40 -25 25 -37 29 -84 29 -45 0 -61 -5 -86 -26z"/>
<path d="M2873 4700 c-92 -56 -91 -209 1 -251 51 -23 78 -24 122 -3 69 33 98
169 48 225 -43 49 -118 62 -171 29z m114 -45 c61 -43 21 -175 -53 -175 -37 0
-74 37 -74 75 0 92 65 144 127 100z"/>
<path d="M1970 4673 c-36 -8 -66 -16 -67 -17 -1 -1 13 -60 31 -131 37 -145 26
-136 125 -109 72 21 101 53 100 113 -1 88 -36 142 -99 154 -14 3 -54 -2 -90
-10z m97 -48 c27 -19 48 -83 39 -118 -4 -17 -19 -30 -47 -41 -23 -10 -45 -13
-49 -9 -8 9 -40 134 -40 157 0 8 12 16 28 19 15 2 32 5 37 6 6 0 20 -6 32 -14z"/>
<path d="M3147 4548 c-45 -132 -52 -158 -39 -158 6 0 17 -3 25 -6 11 -4 20 8
32 46 15 44 20 50 38 44 46 -13 69 -35 63 -57 -20 -68 -19 -74 9 -81 15 -4 30
-5 32 -2 3 2 6 31 8 64 3 48 8 64 29 85 32 32 34 78 6 105 -15 14 -140 62
-162 62 -3 0 -22 -46 -41 -102z m150 17 c24 -16 21 -52 -4 -62 -18 -7 -93 15
-93 27 0 5 5 21 10 35 9 23 14 26 38 20 15 -3 37 -13 49 -20z"/>
<path d="M1778 4613 c-10 -2 -18 -10 -18 -16 0 -7 20 -64 44 -127 40 -103 47
-115 67 -112 13 1 25 4 27 7 5 5 -91 255 -98 254 -3 -1 -13 -3 -22 -6z"/>
<path d="M1550 4508 c-36 -18 -66 -33 -68 -34 -2 -1 24 -56 57 -123 60 -118
62 -120 85 -109 l25 11 -25 48 -24 49 36 15 c50 21 61 19 78 -12 29 -54 31
-55 58 -42 l26 11 -31 49 c-16 27 -36 49 -43 49 -10 0 -12 9 -8 29 6 28 -9 69
-30 83 -22 15 -73 6 -136 -24z m110 -33 c18 -22 6 -41 -39 -65 l-40 -20 -16
31 c-9 17 -15 32 -13 34 13 11 66 34 79 35 9 0 22 -7 29 -15z"/>
<path d="M3422 4414 c-35 -64 -62 -117 -60 -119 2 -1 31 -17 65 -34 95 -47
142 -39 189 32 37 56 42 114 14 150 -21 27 -114 87 -135 87 -6 0 -39 -52 -73
-116z m171 -6 c8 -31 -29 -107 -59 -120 -19 -9 -32 -7 -63 7 l-40 18 40 78 39
79 39 -19 c22 -12 41 -30 44 -43z"/>
<path d="M1277 4344 l-68 -45 17 -27 c34 -53 135 -192 140 -192 3 0 32 18 64
40 62 42 90 81 82 115 -6 27 -42 65 -62 65 -12 0 -17 8 -17 25 0 34 -30 65
-62 65 -14 0 -57 -21 -94 -46z m104 -20 c12 -15 9 -21 -26 -51 l-39 -34 -17
23 c-20 26 -17 33 25 59 38 23 40 23 57 3z m75 -96 c5 -17 0 -28 -27 -50 -41
-34 -52 -35 -73 -3 -21 32 -21 30 17 54 42 27 74 27 83 -1z"/>
<path d="M2370 4380 c-944 -103 -1650 -884 -1650 -1825 0 -271 60 -530 180
-782 102 -212 213 -366 387 -533 259 -249 545 -399 913 -477 114 -25 144 -27
350 -27 206 0 236 2 351 27 183 39 296 78 464 162 177 88 292 168 435 303 174
164 289 318 390 527 72 146 110 255 144 406 47 212 56 395 31 609 -95 814
-714 1460 -1530 1595 -114 19 -354 27 -465 15z m396 -706 c63 -46 69 -64 72
-210 l4 -134 -81 0 -80 0 -3 106 c-3 88 -6 109 -20 118 -41 25 -43 4 -43 -369
0 -329 1 -356 18 -372 18 -17 19 -17 33 1 10 15 14 51 14 138 l0 118 81 0 80
0 -3 -152 c-3 -143 -5 -155 -27 -187 -32 -44 -92 -71 -163 -71 -70 0 -103 12
-145 52 -51 49 -55 88 -51 503 3 352 4 372 24 405 11 19 38 45 60 58 33 19 51
22 121 20 64 -2 88 -7 109 -24z m1020 0 c63 -46 69 -64 72 -210 l4 -134 -81 0
-81 0 0 96 c0 98 -10 134 -36 134 -29 0 -34 -53 -34 -380 0 -327 5 -380 34
-380 27 0 36 37 36 154 l0 116 80 0 80 0 0 -138 c0 -123 -2 -143 -22 -182 -59
-116 -271 -123 -340 -12 -23 37 -23 41 -26 419 -3 395 0 438 38 485 35 45 77
59 167 56 64 -2 88 -7 109 -24z m-2386 -21 c0 -21 7 -153 15 -293 8 -140 15
-275 15 -299 0 -102 13 -15 41 276 16 169 29 318 29 331 0 21 3 22 89 22 l88
0 6 -72 c3 -40 14 -189 23 -330 10 -142 21 -258 24 -258 3 0 14 134 24 298 9
163 20 312 23 330 l5 32 80 0 79 0 -6 -32 c-3 -18 -28 -231 -55 -473 -28 -242
-53 -455 -56 -472 l-5 -33 -94 0 -95 0 0 28 c0 15 -11 165 -25 332 -14 168
-25 314 -25 324 0 11 -3 16 -7 13 -3 -4 -20 -161 -37 -349 l-31 -343 -93 -3
c-84 -2 -92 -1 -92 16 0 10 -18 229 -40 487 -22 258 -40 477 -40 487 0 16 10
18 80 18 l80 0 0 -37z m891 6 c68 -38 84 -80 84 -219 0 -137 -14 -172 -84
-207 l-43 -22 28 -7 c36 -8 61 -30 83 -69 13 -24 16 -59 16 -180 0 -137 -2
-154 -23 -193 -36 -67 -77 -82 -234 -82 l-128 0 0 506 0 507 129 -5 c112 -5
135 -9 172 -29z m1119 -39 l0 -70 -70 0 -70 0 0 -120 0 -120 70 0 70 0 0 -70
0 -70 -70 0 -70 0 0 -245 0 -245 -80 0 -80 0 0 505 0 505 150 0 150 0 0 -70z
m-392 -803 c36 -30 33 -94 -6 -123 -45 -35 -122 5 -122 64 0 66 77 102 128 59z
m-1340 -529 c-3 -28 -12 -38 -72 -75 -66 -40 -70 -41 -97 -27 -16 8 -29 18
-29 23 0 11 97 76 142 96 51 22 60 19 56 -17z m358 16 c40 -17 144 -85 144
-94 0 -3 -12 -13 -28 -22 -27 -16 -29 -15 -100 25 -66 38 -72 44 -72 74 0 38
4 39 56 17z m-284 -104 l68 -41 0 -82 0 -82 -68 -38 -67 -39 -40 21 c-110 58
-105 52 -105 140 l0 79 68 40 c37 22 69 41 71 41 3 1 35 -17 73 -39z m301 -3
l67 -39 0 -78 0 -79 -68 -41 c-38 -22 -71 -40 -74 -40 -4 0 -38 18 -77 41
l-71 41 0 77 0 77 73 42 c39 23 74 40 77 39 3 -1 35 -19 73 -40z m-443 -255
l65 -38 0 -79 0 -79 -69 -43 -69 -42 -46 26 c-106 61 -102 56 -99 141 l3 76
65 38 c36 21 70 38 75 38 6 0 39 -17 75 -38z m586 2 l64 -36 0 -83 0 -84 -62
-37 c-35 -20 -68 -37 -73 -37 -6 0 -41 17 -78 39 l-68 39 3 80 3 80 65 37 c36
21 69 38 73 38 5 0 38 -16 73 -36z m153 -124 c1 -104 -6 -119 -43 -95 -25 16
-26 22 -26 99 0 78 1 82 28 97 24 14 28 14 34 0 4 -9 7 -54 7 -101z m-991 94
c20 -13 22 -24 22 -94 0 -78 -1 -80 -29 -94 -38 -20 -41 -12 -41 103 0 106 5
115 48 85z m392 -222 l65 -38 3 -85 2 -84 -67 -38 -68 -39 -40 21 c-110 58
-105 52 -105 140 l0 79 68 40 c37 22 69 41 72 41 3 0 34 -16 70 -37z m299 -3
l71 -41 0 -78 0 -79 -68 -41 c-38 -22 -71 -40 -74 -40 -4 0 -38 18 -77 41
l-71 41 0 77 0 77 73 42 c39 23 73 42 74 42 1 0 33 -18 72 -41z m-439 -257
c56 -32 65 -42 68 -70 2 -24 -1 -32 -13 -32 -31 0 -185 90 -185 109 0 8 38 29
55 30 6 1 39 -16 75 -37z m545 26 c14 -6 25 -15 25 -19 0 -19 -154 -109 -185
-109 -12 0 -15 8 -13 32 3 28 12 38 68 70 73 43 70 42 105 26z"/>
<path d="M2150 3405 c0 -137 1 -145 19 -145 38 0 51 37 51 145 0 108 -13 145
-51 145 -18 0 -19 -8 -19 -145z"/>
<path d="M2157 3143 c-4 -3 -7 -78 -7 -165 l0 -158 25 0 c14 0 29 8 35 19 11
22 14 270 2 287 -9 15 -46 26 -55 17z"/>
<path d="M3834 4241 c-79 -49 -112 -138 -74 -199 37 -59 138 -86 171 -46 18
21 -17 43 -57 37 -40 -7 -74 24 -74 67 0 45 57 103 100 103 39 0 73 -34 68
-68 -3 -22 17 -55 32 -55 5 0 12 12 17 28 32 93 -97 187 -183 133z"/>
<path d="M970 4085 c-70 -71 -73 -76 -57 -92 16 -16 18 -15 47 12 l30 29 80
-79 c68 -67 81 -77 94 -65 9 7 16 18 16 25 0 7 -35 45 -77 83 l-78 71 29 30
c24 25 27 33 16 46 -7 8 -15 15 -19 15 -4 0 -40 -34 -81 -75z"/>
<path d="M4055 4011 c-84 -51 -109 -133 -62 -202 53 -79 146 -80 220 -1 102
107 -33 280 -158 203z m120 -56 c41 -40 29 -93 -29 -133 -41 -28 -73 -28 -103
0 -34 32 -31 77 10 115 53 50 86 55 122 18z"/>
<path d="M798 3893 c-54 -59 -61 -101 -23 -138 35 -36 71 -32 134 15 42 32 56
38 67 29 32 -27 6 -77 -46 -88 -34 -7 -60 -34 -47 -48 4 -4 23 -7 43 -7 49 0
103 55 111 112 5 34 2 44 -20 66 -33 33 -65 33 -108 1 -19 -13 -44 -32 -57
-41 -22 -16 -24 -16 -40 0 -15 15 -15 19 -2 44 11 19 25 28 48 30 30 3 59 32
45 46 -3 3 -23 6 -43 6 -27 0 -43 -7 -62 -27z"/>
<path d="M4249 3733 c-57 -35 -108 -69 -113 -73 -9 -9 80 -160 94 -160 4 0 13
6 19 14 9 11 5 25 -19 64 -16 27 -30 52 -30 54 0 3 41 31 90 62 50 32 90 61
90 64 0 4 -6 15 -13 24 -12 15 -23 11 -118 -49z"/>
<path d="M627 3618 l-45 -83 111 -62 c62 -35 117 -63 122 -63 6 0 30 38 55 85
38 72 43 87 30 95 -24 16 -27 13 -61 -50 -17 -33 -36 -60 -41 -60 -5 0 -20 7
-33 16 l-24 16 31 55 c25 45 28 57 17 64 -23 15 -28 11 -60 -46 -19 -34 -35
-52 -42 -48 -36 20 -37 24 -6 84 16 33 27 64 24 69 -15 24 -37 4 -78 -72z"/>
<path d="M4445 3580 c-3 -5 1 -23 10 -41 9 -17 15 -33 13 -35 -3 -2 -48 -24
-101 -49 -53 -25 -97 -49 -97 -53 0 -5 6 -16 13 -26 13 -17 18 -16 93 22 117
58 117 58 137 17 15 -32 19 -34 38 -25 11 6 19 15 17 19 -44 107 -85 181 -99
181 -10 0 -21 -4 -24 -10z"/>
<path d="M524 3425 c-3 -14 -5 -27 -3 -29 2 -2 37 -24 77 -49 39 -26 72 -48
72 -49 0 -2 -40 1 -90 6 -49 5 -92 8 -94 5 -2 -2 -6 -14 -10 -26 -6 -18 2 -27
56 -59 112 -67 112 -66 38 -59 -36 3 -79 8 -96 11 -25 3 -33 0 -42 -21 -15
-33 -18 -32 140 -39 119 -6 128 -5 138 13 5 11 10 22 10 25 0 2 -39 28 -86 56
-47 29 -84 53 -82 55 2 2 46 -3 98 -10 98 -14 109 -11 110 25 0 12 -183 151
-222 168 -4 2 -10 -8 -14 -23z"/>
<path d="M4520 3309 c-35 -14 -35 -13 -40 -102 -4 -71 -8 -82 -24 -85 -11 -3
-26 4 -33 14 -15 21 -17 70 -3 79 13 8 13 36 0 55 -16 24 -60 -32 -60 -75 0
-99 79 -157 148 -109 20 13 22 24 22 94 0 81 8 96 41 79 25 -13 33 -57 15 -84
-13 -19 -13 -25 -1 -41 13 -18 14 -18 34 0 44 40 15 165 -42 180 -27 7 -26 7
-57 -5z"/>
<path d="M1067 1116 c-48 -52 -87 -99 -87 -104 0 -5 7 -16 16 -23 15 -12 22
-8 56 30 l39 44 37 -36 c41 -40 51 -44 70 -25 9 9 3 22 -30 55 l-42 43 22 22
22 22 48 -47 c42 -42 50 -46 61 -33 7 9 11 19 9 24 -4 10 -123 122 -130 122
-3 0 -44 -42 -91 -94z"/>
<path d="M3870 1153 c-14 -9 -46 -36 -72 -59 l-46 -43 90 -100 90 -100 58 50
c71 62 85 94 62 141 -13 26 -24 34 -49 36 -27 3 -33 8 -33 27 0 23 -41 65 -64
65 -6 0 -23 -8 -36 -17z m54 -60 c4 -11 -4 -28 -26 -50 l-32 -33 -23 22 -23
22 32 27 c38 32 63 36 72 12z m86 -90 c0 -19 -48 -73 -65 -73 -6 0 -21 10 -33
23 l-22 23 22 21 c37 33 61 42 80 32 10 -5 18 -17 18 -26z"/>
<path d="M1272 998 c-36 -26 -72 -91 -72 -132 0 -67 65 -126 138 -126 69 0
142 81 142 157 0 96 -126 157 -208 101z m141 -60 c25 -33 18 -65 -24 -113 -22
-25 -39 -35 -60 -35 -33 0 -79 38 -79 66 0 26 31 83 54 100 32 22 85 14 109
-18z"/>
<path d="M3688 1006 c-10 -7 -18 -16 -18 -20 0 -4 25 -43 55 -87 30 -44 55
-86 55 -93 0 -20 -34 -46 -62 -46 -19 0 -36 17 -82 80 -31 44 -60 80 -64 80
-4 0 -15 -6 -24 -14 -15 -11 -12 -20 42 -96 33 -46 71 -90 85 -98 36 -18 78
-7 120 33 53 50 49 82 -26 188 -33 48 -61 87 -62 87 -1 0 -10 -7 -19 -14z"/>
<path d="M1530 834 c-41 -35 -62 -77 -62 -130 -1 -56 23 -91 80 -116 42 -19
50 -20 86 -7 79 28 130 140 94 209 -37 69 -140 92 -198 44z m137 -50 c20 -20
24 -31 19 -57 -8 -40 -30 -72 -62 -93 -23 -16 -28 -16 -59 -1 -56 27 -59 87
-9 146 33 40 74 41 111 5z"/>
<path d="M3375 818 c-11 -6 -21 -12 -23 -14 -3 -2 104 -234 112 -241 6 -6 166
76 166 85 0 4 -5 14 -10 22 -8 12 -17 11 -66 -13 -31 -15 -58 -26 -60 -24 -2
2 -25 47 -51 100 -44 88 -50 95 -68 85z"/>
<path d="M1785 762 c-9 -25 -5 -30 30 -42 19 -6 35 -13 35 -14 0 -1 -16 -49
-35 -106 -27 -80 -32 -106 -22 -112 27 -18 41 1 75 99 l35 101 38 -13 c36 -13
38 -12 44 6 4 11 5 22 3 24 -2 2 -47 19 -101 38 -78 27 -97 31 -102 19z"/>
<path d="M3178 739 c-47 -24 -72 -70 -65 -119 11 -86 67 -150 130 -150 36 0
103 34 117 59 5 11 10 34 10 51 0 25 -3 31 -16 26 -9 -3 -19 -6 -24 -6 -4 0
-10 -13 -13 -29 -7 -32 -53 -57 -87 -46 -49 16 -79 124 -44 159 24 24 61 30
87 13 15 -10 29 -12 46 -6 20 8 22 11 10 27 -38 47 -88 55 -151 21z"/>
<path d="M2018 678 c-12 -33 -51 -239 -46 -244 9 -8 119 -33 151 -34 54 0 101
82 66 117 -8 8 -5 19 11 41 43 58 11 98 -98 121 -67 14 -79 14 -84 -1z m125
-60 c10 -5 17 -17 15 -26 -3 -13 -14 -17 -51 -16 -25 0 -49 2 -51 5 -2 2 -2
16 1 31 5 24 8 26 37 21 17 -3 39 -10 49 -15z m-10 -107 c5 -5 7 -19 5 -32 -3
-22 -8 -24 -51 -22 -27 1 -51 4 -54 7 -3 3 -3 21 1 39 l6 35 43 -10 c23 -5 46
-13 50 -17z"/>
<path d="M2776 643 c-15 -4 -17 -11 -13 -41 3 -21 11 -77 18 -127 6 -49 15
-93 18 -97 3 -3 35 -2 71 3 104 15 110 17 110 40 0 21 -3 21 -69 15 l-69 -7
-11 83 c-16 111 -21 138 -29 137 -4 -1 -15 -3 -26 -6z"/>
<path d="M2313 563 c-83 -182 -82 -181 -66 -187 28 -11 41 -6 51 22 9 25 12
27 61 23 47 -3 54 -6 62 -31 11 -30 59 -49 59 -24 0 35 -64 251 -78 262 -35
27 -52 15 -89 -65z m86 -85 c1 -14 -5 -16 -31 -11 -18 3 -34 7 -36 8 -1 1 7
24 19 51 l22 49 13 -40 c7 -22 13 -48 13 -57z"/>
<path d="M2542 498 l3 -133 93 -3 92 -3 0 26 c0 24 -2 25 -64 25 l-63 0 -6 68
c-4 37 -7 86 -7 110 0 38 -2 42 -25 42 l-26 0 3 -132z"/>
</g>
</svg>
