<?xml version="1.0" encoding="UTF-8" standalone="no"?>
<!DOCTYPE svg PUBLIC "-//W3C//DTD SVG 1.1//EN" "http://www.w3.org/Graphics/SVG/1.1/DTD/svg11.dtd">
<svg xmlns="http://www.w3.org/2000/svg" version="1.1" viewBox="0 0 512 512" width="512.0pt" height="512.0pt" xmlns:xlink="http://www.w3.org/1999/xlink">
<defs>
<path d="M 268.00 12.15 C 305.34 14.07 342.21 24.82 374.73 43.27 C 410.02 63.19 440.22 91.93 461.76 126.27 C 480.41 155.78 492.61 189.37 497.09 224.00 C 499.26 238.62 499.18 253.26 498.93 268.00 C 497.18 305.24 486.73 341.99 468.55 374.54 C 448.77 410.19 419.95 440.66 385.55 462.53 C 350.94 484.47 310.94 497.62 270.00 499.96 C 259.68 500.10 249.32 500.17 239.00 499.91 C 212.06 498.28 185.35 491.94 160.47 481.50 C 126.57 467.25 95.78 445.15 71.54 417.48 C 35.58 376.86 13.73 324.23 11.00 270.00 C 10.93 255.39 10.34 240.33 12.39 226.00 C 17.39 185.11 33.01 145.64 57.38 112.43 C 94.61 61.00 152.26 25.16 215.00 15.05 C 232.54 11.97 250.23 11.56 268.00 12.15 Z M 374.79 464.65 C 427.61 434.33 467.99 383.60 485.37 325.19 C 494.50 294.76 497.47 262.57 494.18 230.97 C 490.11 191.97 476.32 154.12 454.29 121.69 C 424.57 77.60 380.12 43.80 329.50 27.42 C 299.21 17.41 266.78 13.71 235.01 16.35 C 195.18 19.56 156.33 32.99 122.99 55.00 C 93.19 74.55 67.80 100.85 49.28 131.30 C 29.00 164.39 17.10 202.45 14.74 241.18 C 12.37 278.63 18.91 316.70 33.85 351.14 C 49.26 386.91 73.49 418.76 103.81 443.21 C 133.34 467.27 168.69 483.98 205.97 491.74 C 242.77 499.33 281.26 498.28 317.53 488.44 C 337.56 483.03 356.83 475.02 374.79 464.65 Z" id="p1" />
<path d="M 235.01 16.35 C 266.78 13.71 299.21 17.41 329.50 27.42 C 380.12 43.80 424.57 77.60 454.29 121.69 C 476.32 154.12 490.11 191.97 494.18 230.97 C 497.47 262.57 494.50 294.76 485.37 325.19 C 467.99 383.60 427.61 434.33 374.79 464.65 C 356.83 475.02 337.56 483.03 317.53 488.44 C 281.26 498.28 242.77 499.33 205.97 491.74 C 168.69 483.98 133.34 467.27 103.81 443.21 C 73.49 418.76 49.26 386.91 33.85 351.14 C 18.91 316.70 12.37 278.63 14.74 241.18 C 17.10 202.45 29.00 164.39 49.28 131.30 C 67.80 100.85 93.19 74.55 122.99 55.00 C 156.33 32.99 195.18 19.56 235.01 16.35 Z M 65.63 398.38 C 96.80 439.95 141.83 470.74 191.96 484.48 C 222.63 492.94 254.98 495.09 286.51 490.84 C 340.27 483.80 390.86 457.44 427.79 417.80 C 445.79 398.58 460.56 376.35 471.30 352.30 C 488.11 314.76 494.67 272.87 490.48 231.97 C 486.72 194.64 473.86 158.18 453.21 126.84 C 431.48 93.43 401.06 65.67 365.88 46.97 C 331.94 28.78 293.50 19.25 255.00 19.32 C 221.17 19.22 187.38 26.57 156.62 40.64 C 122.63 56.21 92.42 79.89 69.23 109.22 C 45.78 138.72 29.54 173.80 22.40 210.81 C 15.89 244.21 16.66 278.98 24.72 312.04 C 32.27 343.20 46.29 372.80 65.63 398.38 Z" id="p2" />
<path d="M 255.00 19.32 C 293.50 19.25 331.94 28.78 365.88 46.97 C 401.06 65.67 431.48 93.43 453.21 126.84 C 473.86 158.18 486.72 194.64 490.48 231.97 C 494.67 272.87 488.11 314.76 471.30 352.30 C 460.56 376.35 445.79 398.58 427.79 417.80 C 390.86 457.44 340.27 483.80 286.51 490.84 C 254.98 495.09 222.63 492.94 191.96 484.48 C 141.83 470.74 96.80 439.95 65.63 398.38 C 46.29 372.80 32.27 343.20 24.72 312.04 C 16.66 278.98 15.89 244.21 22.40 210.81 C 29.54 173.80 45.78 138.72 69.23 109.22 C 92.42 79.89 122.63 56.21 156.62 40.64 C 187.38 26.57 221.17 19.22 255.00 19.32 Z M 416.97 94.02 C 400.57 77.36 381.17 63.40 360.53 52.47 C 329.21 36.25 294.28 27.30 259.00 26.76 C 218.40 25.97 177.71 36.16 142.39 56.25 C 104.46 77.64 72.82 109.93 52.39 148.40 C 34.53 181.62 25.25 219.29 25.46 257.00 C 25.53 294.53 35.04 331.94 52.96 364.93 C 69.41 395.56 93.22 422.30 121.39 442.63 C 152.17 464.71 188.39 479.05 226.00 483.74 C 260.33 488.09 295.63 484.58 328.42 473.47 C 360.37 462.62 389.87 444.58 414.10 421.10 C 442.56 393.68 463.83 358.92 474.92 320.97 C 485.13 286.78 486.94 250.09 480.60 215.00 C 472.40 169.48 449.84 126.57 416.97 94.02 Z" id="p3" />
<path d="M 259.00 26.76 C 294.28 27.30 329.21 36.25 360.53 52.47 C 381.17 63.40 400.57 77.36 416.97 94.02 C 449.84 126.57 472.40 169.48 480.60 215.00 C 486.94 250.09 485.13 286.78 474.92 320.97 C 463.83 358.92 442.56 393.68 414.10 421.10 C 389.87 444.58 360.37 462.62 328.42 473.47 C 295.63 484.58 260.33 488.09 226.00 483.74 C 188.39 479.05 152.17 464.71 121.39 442.63 C 93.22 422.30 69.41 395.56 52.96 364.93 C 35.04 331.94 25.53 294.53 25.46 257.00 C 25.25 219.29 34.53 181.62 52.39 148.40 C 72.82 109.93 104.46 77.64 142.39 56.25 C 177.71 36.16 218.40 25.97 259.00 26.76 Z M 256.04 37.11 C 255.84 46.20 255.50 55.29 255.18 64.38 C 257.01 64.44 258.84 64.50 260.66 64.56 C 260.83 60.71 260.99 56.87 261.16 53.03 C 265.11 53.08 269.05 53.23 273.00 53.37 C 273.06 51.81 273.12 50.24 273.19 48.67 C 269.22 48.52 265.25 48.37 261.28 48.24 C 261.35 46.17 261.41 44.10 261.47 42.03 C 266.01 42.19 270.56 42.33 275.10 42.43 C 275.10 40.85 275.10 39.27 275.09 37.69 C 268.74 37.60 262.39 37.33 256.04 37.11 Z M 244.20 61.88 C 244.44 62.78 244.68 63.68 244.92 64.58 C 246.18 64.55 247.45 64.52 248.71 64.49 C 248.34 59.53 247.97 54.58 247.41 49.64 C 243.69 50.02 239.98 50.41 236.25 50.66 C 236.37 52.21 236.48 53.76 236.59 55.31 C 238.80 55.14 241.00 54.97 243.20 54.82 C 242.38 56.56 241.68 58.94 240.04 60.08 C 236.79 62.16 231.99 61.49 229.95 58.03 C 227.71 54.37 227.28 48.47 229.87 44.90 C 233.19 41.01 239.19 41.44 241.64 46.10 C 243.57 45.95 245.50 45.78 247.43 45.58 C 245.83 42.71 244.69 40.02 241.49 38.63 C 236.29 36.44 228.67 37.32 225.11 42.10 C 221.31 46.86 221.64 54.52 224.26 59.75 C 227.13 65.49 234.45 67.87 240.25 65.24 C 241.72 64.40 242.97 63.03 244.20 61.88 Z M 289.48 40.66 C 281.79 43.04 279.00 52.94 280.88 60.02 C 283.36 69.13 296.93 72.08 303.10 65.08 C 306.86 60.85 308.24 53.79 306.48 48.45 C 304.30 41.68 295.91 38.70 289.48 40.66 Z M 189.94 46.46 C 192.14 55.28 194.39 64.09 196.52 72.93 C 201.28 71.81 206.40 70.96 210.83 68.86 C 214.93 66.84 216.65 62.38 216.35 58.00 C 216.00 54.11 214.85 49.77 212.30 46.72 C 209.98 43.95 206.51 43.07 203.01 43.48 C 198.59 44.09 194.30 45.52 189.94 46.46 Z M 317.65 48.53 C 314.88 56.43 312.15 64.37 309.50 72.32 C 311.27 72.90 313.05 73.49 314.82 74.07 C 315.92 70.71 317.06 67.37 318.24 64.04 C 320.95 65.06 324.08 65.77 326.47 67.43 C 327.25 70.52 325.17 74.11 324.81 77.24 C 326.63 78.24 328.62 78.96 330.52 79.77 C 330.67 74.43 333.68 71.06 331.59 65.93 C 335.43 64.24 336.85 62.23 337.22 58.03 C 337.60 54.76 335.31 52.61 332.55 51.43 C 327.92 49.57 323.12 48.13 318.44 46.39 C 318.18 47.10 317.91 47.81 317.65 48.53 Z M 175.33 51.77 C 178.43 60.35 181.86 68.83 185.06 77.37 C 186.84 76.68 188.61 75.98 190.37 75.28 C 186.99 66.85 183.77 58.36 180.58 49.86 C 178.83 50.50 177.08 51.14 175.33 51.77 Z M 147.97 64.57 C 151.85 72.83 155.88 81.04 159.96 89.21 C 161.61 88.38 163.27 87.55 164.93 86.74 C 163.41 83.53 161.84 80.35 160.25 77.18 C 162.95 75.99 165.96 73.99 168.94 73.93 C 171.31 76.19 172.61 79.49 174.58 82.11 C 176.35 81.24 178.13 80.38 179.91 79.55 C 176.59 75.58 175.88 70.99 171.22 69.14 C 172.73 65.21 171.77 61.20 168.51 58.53 C 166.08 56.82 163.07 57.50 160.52 58.56 C 156.28 60.44 152.19 62.65 147.97 64.57 Z M 335.85 82.27 C 339.99 84.45 344.07 87.05 348.49 88.62 C 352.46 89.99 356.81 88.64 359.61 85.59 C 362.47 82.43 364.61 78.28 365.14 74.03 C 365.45 70.15 363.61 66.74 360.39 64.65 C 356.77 62.33 352.63 60.09 348.70 58.35 C 344.28 66.24 340.26 74.37 335.85 82.27 Z M 120.68 82.34 C 125.90 89.80 131.19 97.21 136.33 104.72 C 140.74 101.43 145.97 98.70 149.74 94.68 C 152.75 91.31 151.85 86.24 148.54 83.43 C 147.18 82.09 145.17 82.13 143.39 81.76 C 144.32 76.63 140.56 71.35 135.01 73.06 C 129.81 75.15 125.42 79.35 120.68 82.34 Z M 73.62 231.02 C 69.62 260.28 72.66 290.41 82.72 318.19 C 94.39 350.49 115.34 379.44 142.49 400.49 C 167.52 420.10 197.69 433.00 229.18 437.40 C 260.68 441.86 293.50 438.07 322.99 426.06 C 363.39 409.98 397.43 379.01 417.40 340.40 C 437.26 302.53 443.03 257.66 433.50 215.98 C 425.23 178.63 404.73 144.24 375.99 119.02 C 352.55 98.20 323.71 83.60 293.03 77.12 C 265.62 71.27 236.95 71.90 209.78 78.76 C 179.73 86.40 151.70 101.90 129.24 123.26 C 99.19 151.55 79.14 190.10 73.62 231.02 Z M 394.83 111.49 C 393.52 110.33 392.19 109.18 390.87 108.03 C 388.52 108.67 386.60 109.82 384.16 108.70 C 382.04 107.57 380.04 105.54 379.82 103.03 C 379.52 99.89 381.54 96.79 383.63 94.62 C 385.26 93.02 387.59 91.34 389.99 91.44 C 392.46 91.37 394.64 93.11 396.08 94.96 C 397.53 96.75 396.70 99.05 396.49 101.12 C 397.84 102.28 399.20 103.42 400.57 104.57 C 401.98 101.38 403.45 98.68 402.03 95.12 C 399.57 89.18 391.95 84.05 385.47 86.58 C 380.28 88.54 375.91 93.90 374.43 99.17 C 372.34 106.81 379.67 114.21 387.00 114.62 C 390.18 114.77 392.31 113.09 394.83 111.49 Z M 89.54 111.22 C 90.73 112.34 91.91 113.47 93.10 114.60 C 94.97 112.63 96.85 110.68 98.76 108.74 C 104.13 113.94 109.45 119.19 114.87 124.33 C 116.18 122.99 117.49 121.64 118.80 120.29 C 113.35 115.15 107.97 109.94 102.62 104.69 C 104.49 102.77 106.35 100.84 108.20 98.91 C 107.08 97.80 105.96 96.68 104.80 95.61 C 99.51 100.60 94.67 106.07 89.54 111.22 Z M 408.43 109.46 C 403.22 111.18 398.20 115.50 396.88 120.98 C 394.57 129.49 403.32 139.03 412.05 137.09 C 417.46 136.12 423.17 131.11 424.77 125.85 C 427.68 116.66 417.78 106.26 408.43 109.46 Z M 90.18 140.89 C 89.14 142.34 88.08 143.79 87.04 145.24 C 90.07 146.29 92.72 147.39 95.87 145.98 C 99.90 144.30 103.58 139.33 104.21 135.04 C 104.99 129.99 100.13 124.83 95.01 125.91 C 90.95 127.09 87.56 131.27 83.99 133.41 C 82.09 134.26 81.18 133.31 80.17 131.85 C 79.69 129.07 81.75 126.34 84.16 125.21 C 85.50 125.09 86.85 125.07 88.21 125.15 C 89.31 123.78 90.39 122.39 91.46 121.00 C 88.58 120.09 86.19 118.84 83.15 120.11 C 79.18 121.79 76.26 126.13 75.19 130.19 C 73.76 135.72 80.69 141.42 85.76 138.73 C 89.66 136.97 92.80 131.99 97.07 131.43 C 98.36 132.25 99.34 133.34 99.38 134.95 C 98.73 137.37 97.05 139.58 94.84 140.79 C 93.43 141.34 91.67 140.98 90.18 140.89 Z M 412.39 146.56 C 415.85 151.84 419.06 157.27 422.46 162.59 C 423.85 161.66 425.24 160.73 426.64 159.81 C 424.31 156.01 421.89 152.29 419.70 148.41 C 426.01 144.56 432.25 140.61 438.54 136.73 C 437.56 135.15 436.60 133.57 435.57 132.03 C 427.76 136.70 419.99 141.55 412.39 146.56 Z M 58.04 158.56 C 66.03 162.94 73.98 167.37 81.94 171.79 C 85.24 165.77 88.65 159.82 91.89 153.77 C 90.42 152.98 88.95 152.19 87.48 151.40 C 85.06 155.76 82.66 160.12 80.23 164.47 C 78.18 163.33 76.13 162.20 74.08 161.08 C 76.18 157.29 78.21 153.46 80.37 149.69 C 79.04 148.90 77.71 148.13 76.38 147.36 C 74.17 151.14 72.05 154.98 69.97 158.84 C 68.28 157.88 66.59 156.91 64.90 155.95 C 67.22 151.80 69.46 147.62 71.75 143.45 C 70.38 142.69 69.01 141.93 67.65 141.17 C 64.46 146.97 61.20 152.74 58.04 158.56 Z M 443.75 154.22 C 444.86 156.69 446.00 159.14 447.10 161.61 C 440.35 164.87 433.53 168.02 426.70 171.11 C 427.54 172.80 428.36 174.49 429.19 176.19 C 436.02 173.11 442.71 169.73 449.60 166.78 C 450.71 169.20 451.82 171.62 452.93 174.04 C 454.39 173.35 455.85 172.66 457.32 171.98 C 454.32 165.37 451.17 158.83 448.18 152.21 C 446.70 152.88 445.23 153.55 443.75 154.22 Z M 53.31 166.56 C 52.99 167.53 52.67 168.51 52.34 169.48 C 52.05 170.35 51.77 171.22 51.48 172.08 C 56.97 175.65 62.58 179.07 68.00 182.74 C 61.52 181.96 55.07 180.97 48.58 180.28 C 47.96 182.17 47.34 184.05 46.71 185.93 C 52.32 189.20 57.90 192.54 63.48 195.85 C 56.99 195.46 50.52 194.47 44.02 194.22 C 43.20 195.92 42.61 197.75 41.95 199.52 C 50.03 199.99 58.12 200.58 66.20 200.64 C 67.60 199.66 67.32 199.10 67.93 201.02 C 71.58 201.26 70.97 198.49 72.18 196.03 C 66.08 192.43 59.97 188.86 53.90 185.20 C 60.94 186.01 67.95 187.06 74.98 187.97 C 75.52 186.24 76.07 184.52 76.63 182.80 C 68.76 177.52 61.09 171.97 53.31 166.56 Z M 443.24 188.60 C 442.74 186.94 442.24 185.27 441.72 183.61 C 439.61 185.04 437.46 185.91 436.48 188.44 C 434.59 193.00 436.34 198.94 439.32 202.67 C 442.57 207.14 451.16 206.19 452.94 200.87 C 454.13 196.32 452.45 191.06 453.35 186.48 C 454.65 185.45 456.40 185.12 457.68 186.36 C 459.21 187.95 460.14 190.66 459.62 192.84 C 459.02 193.99 458.11 195.01 457.32 196.03 C 457.83 197.64 458.34 199.25 458.86 200.85 C 461.00 199.43 463.08 198.52 464.02 195.91 C 465.47 191.64 463.83 186.37 461.08 182.94 C 458.24 178.85 451.24 179.81 448.58 183.53 C 446.23 187.76 448.81 194.13 447.63 198.65 C 447.33 199.99 445.12 200.26 443.99 200.21 C 441.67 198.78 440.63 195.59 440.65 193.00 C 440.87 191.37 442.32 189.91 443.24 188.60 Z M 97.26 410.58 C 98.58 411.81 99.91 413.04 101.22 414.28 C 103.89 411.44 106.54 408.59 109.22 405.76 C 112.11 408.36 114.78 411.29 117.86 413.66 C 119.05 412.67 120.11 411.51 121.20 410.40 C 118.25 407.70 115.31 405.00 112.43 402.22 C 113.81 400.78 115.17 399.25 116.71 397.97 C 120.21 400.78 123.32 404.06 126.71 407.01 C 127.72 405.81 128.73 404.61 129.75 403.42 C 125.09 399.18 120.61 394.76 115.92 390.57 C 109.63 397.17 103.33 403.78 97.26 410.58 Z M 374.99 406.87 C 381.14 413.55 387.19 420.33 393.23 427.12 C 396.54 424.14 399.99 421.28 403.17 418.15 C 405.16 416.21 406.58 413.87 406.63 411.01 C 406.39 408.09 404.49 405.31 401.90 403.96 C 400.45 403.62 398.90 403.53 397.42 403.39 C 397.22 400.87 397.12 398.70 395.05 396.95 C 392.53 394.65 389.36 394.78 386.65 396.65 C 382.47 399.65 378.79 403.41 374.99 406.87 Z M 129.51 410.63 C 124.52 413.08 120.58 418.47 119.93 424.00 C 118.72 433.22 129.94 441.23 138.28 437.31 C 143.40 435.03 147.23 429.51 148.04 424.03 C 149.34 414.68 138.00 406.44 129.51 410.63 Z M 366.31 413.05 C 369.43 417.79 372.76 422.38 375.96 427.06 C 377.06 428.81 378.54 431.11 377.18 433.14 C 375.52 435.87 371.53 437.86 368.94 435.06 C 364.82 430.09 361.38 424.45 357.57 419.23 C 356.02 420.31 354.48 421.40 352.93 422.49 C 356.76 427.83 360.33 433.43 364.44 438.56 C 367.15 441.80 371.16 442.59 375.03 440.97 C 378.77 439.19 382.50 436.37 383.25 432.03 C 383.78 428.76 381.86 425.54 380.05 422.97 C 376.95 418.66 374.04 414.20 370.81 409.99 C 369.28 410.97 367.80 412.02 366.31 413.05 Z M 157.17 426.18 C 150.70 428.10 146.43 435.55 146.38 442.01 C 146.21 451.53 158.90 458.13 166.66 452.71 C 170.99 449.88 174.02 444.14 174.20 439.01 C 174.70 430.53 164.99 423.93 157.17 426.18 Z M 334.55 431.53 C 338.52 439.72 342.59 447.85 346.45 456.09 C 352.25 453.50 357.84 450.52 363.58 447.81 C 362.85 446.30 362.12 444.79 361.40 443.27 C 357.37 445.23 353.37 447.23 349.31 449.10 C 346.19 442.39 342.86 435.78 339.64 429.13 C 337.94 429.93 336.25 430.73 334.55 431.53 Z M 177.27 438.66 C 179.84 439.62 182.42 440.52 185.01 441.42 C 182.59 448.47 180.30 455.59 177.65 462.55 C 179.44 463.21 181.24 463.85 183.05 464.47 C 185.44 457.37 187.96 450.30 190.38 443.20 C 192.91 444.12 195.45 445.01 198.01 445.86 C 198.53 444.33 199.05 442.81 199.58 441.28 C 192.75 439.04 186.00 436.45 179.13 434.35 C 178.41 435.73 177.86 437.22 177.27 438.66 Z M 337.50 450.86 C 335.80 451.26 334.11 451.68 332.42 452.10 C 331.94 453.81 331.74 456.15 330.48 457.49 C 328.18 459.77 324.19 460.60 321.44 458.61 C 318.22 456.40 316.76 451.72 316.66 447.99 C 316.54 443.41 321.68 440.20 325.85 441.33 C 327.11 441.95 328.21 443.03 329.30 443.92 C 331.03 443.33 332.75 442.71 334.47 442.09 C 332.36 439.35 330.72 436.67 327.02 436.03 C 320.61 435.26 312.28 439.00 311.16 446.00 C 310.32 451.85 312.78 458.85 317.31 462.71 C 322.52 467.06 330.95 464.86 335.15 460.14 C 337.61 457.38 337.45 454.33 337.50 450.86 Z M 196.38 469.14 C 202.10 469.93 208.24 472.47 214.00 471.82 C 220.10 470.84 222.06 462.92 217.90 458.61 C 220.50 456.60 222.11 454.47 221.68 451.00 C 221.38 447.49 218.01 445.92 215.01 445.15 C 210.76 444.21 206.48 443.14 202.17 442.54 C 199.85 451.28 198.26 460.29 196.38 469.14 Z M 275.68 447.89 C 276.94 456.88 278.24 465.86 279.44 474.85 C 285.72 474.14 291.96 473.19 298.21 472.26 C 298.01 470.63 297.82 468.99 297.63 467.36 C 293.20 467.91 288.77 468.56 284.34 469.12 C 283.33 461.78 282.20 454.45 281.29 447.09 C 279.42 447.36 277.55 447.62 275.68 447.89 Z M 234.82 448.02 C 230.82 456.82 226.73 465.59 222.78 474.42 C 224.74 474.59 226.71 474.77 228.68 474.95 C 229.41 473.12 230.17 471.30 230.91 469.47 C 234.43 469.82 237.94 470.10 241.46 470.40 C 241.93 472.33 242.41 474.26 242.88 476.19 C 244.82 476.34 246.75 476.49 248.68 476.64 C 246.19 467.32 243.73 457.98 241.28 448.64 C 239.13 448.44 236.97 448.23 234.82 448.02 Z M 253.53 449.13 C 253.86 458.23 254.07 467.34 254.51 476.44 C 260.80 476.23 267.08 476.00 273.37 475.84 C 273.34 474.14 273.31 472.43 273.28 470.73 C 268.82 470.91 264.35 471.01 259.88 471.21 C 259.69 463.79 259.28 456.37 259.20 448.94 C 257.31 449.00 255.42 449.06 253.53 449.13 Z" id="p4" />
<path d="M 256.04 37.11 C 262.39 37.33 268.74 37.60 275.09 37.69 C 275.10 39.27 275.10 40.85 275.10 42.43 C 270.56 42.33 266.01 42.19 261.47 42.03 C 261.41 44.10 261.35 46.17 261.28 48.24 C 265.25 48.37 269.22 48.52 273.19 48.67 C 273.12 50.24 273.06 51.81 273.00 53.37 C 269.05 53.23 265.11 53.08 261.16 53.03 C 260.99 56.87 260.83 60.71 260.66 64.56 C 258.84 64.50 257.01 64.44 255.18 64.38 C 255.50 55.29 255.84 46.20 256.04 37.11 Z" id="p5" />
<path d="M 241.49 38.63 C 244.69 40.02 245.83 42.71 247.43 45.58 C 245.50 45.78 243.57 45.95 241.64 46.10 C 239.19 41.44 233.19 41.01 229.87 44.90 C 227.28 48.47 227.71 54.37 229.95 58.03 C 231.99 61.49 236.79 62.16 240.04 60.08 C 241.68 58.94 242.38 56.56 243.20 54.82 C 241.00 54.97 238.80 55.14 236.59 55.31 C 236.48 53.76 236.37 52.21 236.25 50.66 C 239.98 50.41 243.69 50.02 247.41 49.64 C 247.97 54.58 248.34 59.53 248.71 64.49 C 247.45 64.52 246.18 64.55 244.92 64.58 C 244.68 63.68 244.44 62.78 244.20 61.88 C 242.97 63.03 241.72 64.40 240.25 65.24 C 234.45 67.87 227.13 65.49 224.26 59.75 C 221.64 54.52 221.31 46.86 225.11 42.10 C 228.67 37.32 236.29 36.44 241.49 38.63 Z" id="p6" />
<path d="M 289.48 40.66 C 295.91 38.70 304.30 41.68 306.48 48.45 C 308.24 53.79 306.86 60.85 303.10 65.08 C 296.93 72.08 283.36 69.13 280.88 60.02 C 279.00 52.94 281.79 43.04 289.48 40.66 Z M 291.42 45.47 C 288.50 46.42 287.18 49.43 286.47 52.18 C 285.75 55.47 285.64 59.33 288.03 62.01 C 291.00 64.46 296.08 64.91 298.71 61.71 C 301.12 58.78 302.09 54.17 301.31 50.49 C 300.43 46.14 295.36 44.06 291.42 45.47 Z" id="p7" />
<path d="M 203.01 43.48 C 206.51 43.07 209.98 43.95 212.30 46.72 C 214.85 49.77 216.00 54.11 216.35 58.00 C 216.65 62.38 214.93 66.84 210.83 68.86 C 206.40 70.96 201.28 71.81 196.52 72.93 C 194.39 64.09 192.14 55.28 189.94 46.46 C 194.30 45.52 198.59 44.09 203.01 43.48 Z M 196.46 49.76 C 197.83 55.51 199.36 61.21 200.71 66.97 C 203.65 66.07 208.68 65.54 210.23 62.44 C 211.39 58.92 210.33 54.62 208.64 51.43 C 207.62 49.36 205.34 48.02 203.03 48.34 C 200.82 48.63 198.62 49.23 196.46 49.76 Z" id="p8" />
<path d="M 291.42 45.47 C 295.36 44.06 300.43 46.14 301.31 50.49 C 302.09 54.17 301.12 58.78 298.71 61.71 C 296.08 64.91 291.00 64.46 288.03 62.01 C 285.64 59.33 285.75 55.47 286.47 52.18 C 287.18 49.43 288.50 46.42 291.42 45.47 Z" id="p9" />
<path d="M 318.44 46.39 C 323.12 48.13 327.92 49.57 332.55 51.43 C 335.31 52.61 337.60 54.76 337.22 58.03 C 336.85 62.23 335.43 64.24 331.59 65.93 C 333.68 71.06 330.67 74.43 330.52 79.77 C 328.62 78.96 326.63 78.24 324.81 77.24 C 325.17 74.11 327.25 70.52 326.47 67.43 C 324.08 65.77 320.95 65.06 318.24 64.04 C 317.06 67.37 315.92 70.71 314.82 74.07 C 313.05 73.49 311.27 72.90 309.50 72.32 C 312.15 64.37 314.88 56.43 317.65 48.53 C 317.91 47.81 318.18 47.10 318.44 46.39 Z M 319.83 59.66 C 322.74 60.52 325.87 62.03 328.93 62.02 C 331.15 61.62 332.63 56.98 330.21 55.83 C 327.76 54.39 324.92 53.53 322.18 52.84 C 321.22 55.02 320.54 57.38 319.83 59.66 Z" id="p10" />
<path d="M 203.03 48.34 C 205.34 48.02 207.62 49.36 208.64 51.43 C 210.33 54.62 211.39 58.92 210.23 62.44 C 208.68 65.54 203.65 66.07 200.71 66.97 C 199.36 61.21 197.83 55.51 196.46 49.76 C 198.62 49.23 200.82 48.63 203.03 48.34 Z" id="p11" />
<path d="M 180.58 49.86 C 183.77 58.36 186.99 66.85 190.37 75.28 C 188.61 75.98 186.84 76.68 185.06 77.37 C 181.86 68.83 178.43 60.35 175.33 51.77 C 177.08 51.14 178.83 50.50 180.58 49.86 Z" id="p12" />
<path d="M 322.18 52.84 C 324.92 53.53 327.76 54.39 330.21 55.83 C 332.63 56.98 331.15 61.62 328.93 62.02 C 325.87 62.03 322.74 60.52 319.83 59.66 C 320.54 57.38 321.22 55.02 322.18 52.84 Z" id="p13" />
<path d="M 168.51 58.53 C 171.77 61.20 172.73 65.21 171.22 69.14 C 175.88 70.99 176.59 75.58 179.91 79.55 C 178.13 80.38 176.35 81.24 174.58 82.11 C 172.61 79.49 171.31 76.19 168.94 73.93 C 165.96 73.99 162.95 75.99 160.25 77.18 C 161.84 80.35 163.41 83.53 164.93 86.74 C 163.27 87.55 161.61 88.38 159.96 89.21 C 155.88 81.04 151.85 72.83 147.97 64.57 C 152.19 62.65 156.28 60.44 160.52 58.56 C 163.07 57.50 166.08 56.82 168.51 58.53 Z M 155.06 66.39 C 156.08 68.58 157.13 70.76 158.18 72.94 C 160.95 71.53 164.18 70.34 166.50 68.25 C 167.64 65.87 165.78 62.66 163.04 62.85 C 160.26 63.61 157.65 65.16 155.06 66.39 Z" id="p14" />
<path d="M 348.70 58.35 C 352.63 60.09 356.77 62.33 360.39 64.65 C 363.61 66.74 365.45 70.15 365.14 74.03 C 364.61 78.28 362.47 82.43 359.61 85.59 C 356.81 88.64 352.46 89.99 348.49 88.62 C 344.07 87.05 339.99 84.45 335.85 82.27 C 340.26 74.37 344.28 66.24 348.70 58.35 Z M 343.07 80.64 C 346.15 81.99 350.06 85.04 353.47 83.30 C 356.29 81.57 358.17 78.11 359.13 75.02 C 359.90 72.71 359.46 70.16 357.57 68.55 C 355.69 67.17 353.53 65.98 351.34 65.19 C 348.36 70.20 345.83 75.51 343.07 80.64 Z" id="p15" />
<path d="M 163.04 62.85 C 165.78 62.66 167.64 65.87 166.50 68.25 C 164.18 70.34 160.95 71.53 158.18 72.94 C 157.13 70.76 156.08 68.58 155.06 66.39 C 157.65 65.16 160.26 63.61 163.04 62.85 Z" id="p16" />
<path d="M 351.34 65.19 C 353.53 65.98 355.69 67.17 357.57 68.55 C 359.46 70.16 359.90 72.71 359.13 75.02 C 358.17 78.11 356.29 81.57 353.47 83.30 C 350.06 85.04 346.15 81.99 343.07 80.64 C 345.83 75.51 348.36 70.20 351.34 65.19 Z" id="p17" />
<path d="M 135.01 73.06 C 140.56 71.35 144.32 76.63 143.39 81.76 C 145.17 82.13 147.18 82.09 148.54 83.43 C 151.85 86.24 152.75 91.31 149.74 94.68 C 145.97 98.70 140.74 101.43 136.33 104.72 C 131.19 97.21 125.90 89.80 120.68 82.34 C 125.42 79.35 129.81 75.15 135.01 73.06 Z M 127.89 83.08 C 128.99 84.68 130.10 86.28 131.20 87.88 C 133.59 86.14 136.38 84.59 138.35 82.38 C 139.00 80.64 138.13 79.19 136.69 78.21 C 133.51 78.36 130.48 81.41 127.89 83.08 Z M 133.91 91.78 C 135.25 93.72 136.59 95.64 137.95 97.56 C 140.37 95.90 143.21 94.35 145.16 92.14 C 146.97 90.24 144.95 87.40 143.01 86.49 C 139.66 86.98 136.65 89.90 133.91 91.78 Z" id="p18" />
<path d="M 293.03 77.12 C 323.71 83.60 352.55 98.20 375.99 119.02 C 404.73 144.24 425.23 178.63 433.50 215.98 C 443.03 257.66 437.26 302.53 417.40 340.40 C 397.43 379.01 363.39 409.98 322.99 426.06 C 293.50 438.07 260.68 441.86 229.18 437.40 C 197.69 433.00 167.52 420.10 142.49 400.49 C 115.34 379.44 94.39 350.49 82.72 318.19 C 72.66 290.41 69.62 260.28 73.62 231.02 C 79.14 190.10 99.19 151.55 129.24 123.26 C 151.70 101.90 179.73 86.40 209.78 78.76 C 236.95 71.90 265.62 71.27 293.03 77.12 Z M 274.48 78.44 C 273.72 95.92 274.52 113.50 274.08 131.00 C 273.87 135.02 273.83 139.03 274.04 143.06 L 272.52 142.60 C 270.35 141.92 268.25 141.98 266.00 141.95 C 262.30 142.02 258.89 141.61 255.39 143.12 C 254.72 143.48 254.05 143.83 253.37 144.18 C 249.62 145.97 247.94 149.01 246.09 152.51 C 246.01 153.64 245.92 154.78 245.83 155.91 C 245.21 157.96 244.95 159.85 244.98 162.00 C 245.02 183.33 244.99 204.67 244.99 226.00 C 244.93 228.91 245.64 231.64 246.28 234.45 C 246.63 235.51 246.95 236.58 247.24 237.66 C 249.92 240.23 252.46 243.96 256.13 244.95 C 260.90 246.45 266.75 246.42 271.60 245.37 C 272.23 245.21 272.85 245.04 273.47 244.88 C 276.23 243.53 278.78 242.22 280.72 239.75 C 280.50 240.86 280.28 241.97 280.08 243.08 C 278.10 243.66 276.12 244.24 274.15 244.83 C 274.23 247.94 274.27 251.04 274.27 254.15 C 281.19 253.47 288.07 254.16 295.00 253.78 C 301.27 253.42 307.49 254.27 313.77 253.75 C 313.73 250.50 313.69 247.25 313.66 244.00 C 318.09 244.05 322.52 244.01 326.96 243.95 C 327.05 227.64 326.97 211.33 327.00 195.02 C 331.66 195.00 336.32 195.01 340.98 195.00 C 341.01 190.33 341.01 185.67 340.98 181.00 C 336.32 180.99 331.66 181.00 327.00 180.98 C 326.96 172.99 327.09 164.99 326.91 157.00 C 331.60 157.00 336.30 157.02 340.99 156.99 C 340.99 152.34 341.02 147.69 340.98 143.03 C 331.85 143.05 322.72 143.02 313.59 143.05 C 314.74 132.99 313.55 123.07 313.81 113.00 C 313.73 106.98 313.77 101.01 314.22 95.00 C 314.27 92.44 314.47 88.51 312.64 86.49 C 303.61 83.00 293.50 81.16 284.04 79.17 C 280.87 78.47 277.71 78.28 274.48 78.44 Z M 195.19 89.48 C 195.57 101.98 195.18 114.50 195.36 127.00 C 195.53 133.36 194.58 139.64 194.71 146.00 C 194.75 150.34 195.34 154.64 195.31 158.99 C 195.26 182.99 195.29 207.00 195.29 231.00 C 195.38 235.69 195.31 240.29 195.02 244.96 C 195.35 247.85 194.94 250.64 194.44 253.47 C 201.63 254.37 208.79 253.93 216.00 254.16 C 221.90 254.20 227.75 253.49 233.66 253.68 C 234.30 248.85 234.62 244.22 233.29 239.47 C 233.65 238.82 234.01 238.16 234.36 237.50 C 238.02 231.24 238.10 223.06 238.01 216.00 C 238.16 209.86 237.66 203.26 235.45 197.48 C 234.64 196.35 233.82 195.24 232.96 194.16 C 234.68 190.85 234.65 190.08 233.16 186.66 C 233.92 185.64 234.64 184.58 235.34 183.51 C 235.81 182.50 236.28 181.49 236.75 180.47 C 237.00 178.71 237.24 176.95 237.82 175.25 C 238.13 168.59 238.41 162.01 236.79 155.48 C 235.51 152.60 234.26 149.91 232.10 147.55 C 232.91 146.99 233.71 146.43 234.51 145.86 C 234.06 142.25 233.73 138.64 233.77 135.00 C 233.89 118.33 233.72 101.67 233.87 85.00 C 233.85 82.81 233.87 80.70 233.16 78.60 C 222.83 79.03 213.43 81.92 203.53 84.50 C 200.27 85.49 197.85 87.46 195.19 89.48 Z M 112.51 253.44 C 119.34 254.66 126.12 254.32 133.00 254.00 C 139.02 253.71 145.02 254.23 151.02 254.12 C 152.72 254.20 154.01 253.45 155.47 252.72 C 154.27 247.36 155.55 242.38 155.45 237.00 C 155.48 231.31 154.53 225.71 154.62 220.01 C 154.70 216.03 154.58 212.19 154.07 208.25 C 154.13 205.41 154.13 202.57 154.31 199.74 C 155.76 195.64 154.15 191.12 155.81 187.22 C 156.02 184.00 156.00 180.78 156.07 177.56 C 156.73 176.19 157.33 174.80 157.98 173.44 C 158.03 176.39 158.00 179.32 158.19 182.26 C 159.96 186.69 158.02 191.34 159.81 195.76 C 160.13 200.11 159.67 204.24 160.65 208.53 C 161.48 212.54 160.31 217.05 161.83 220.78 C 162.15 224.68 161.70 228.74 162.48 232.53 C 163.28 236.18 162.99 240.23 163.02 243.99 C 169.28 244.06 175.54 243.97 181.80 244.04 C 183.15 239.82 182.55 235.40 183.79 231.24 C 183.97 228.74 184.03 226.24 184.22 223.74 C 186.16 211.98 186.99 199.79 188.64 187.94 C 189.09 184.94 188.82 182.15 189.73 179.22 C 190.31 171.44 191.59 163.73 192.21 155.96 C 192.96 151.64 192.97 147.29 194.13 143.04 C 188.83 143.02 183.53 143.08 178.23 143.00 C 176.62 149.01 177.27 154.92 176.74 161.00 C 175.26 167.05 176.74 173.09 175.32 179.11 C 174.58 183.50 175.40 188.27 174.68 192.64 C 173.53 197.91 174.12 203.74 174.01 209.16 L 171.99 208.99 C 171.94 204.21 172.38 199.25 171.35 194.65 C 170.57 190.26 171.48 185.90 170.52 181.45 C 169.48 176.73 170.52 172.15 169.52 167.49 C 168.43 162.78 169.54 158.21 168.51 153.47 C 167.79 149.95 168.00 146.61 167.99 143.03 C 163.51 143.04 159.04 143.04 154.56 143.06 C 154.22 136.66 155.38 130.37 155.09 123.98 C 155.00 118.86 155.82 113.98 154.55 108.91 C 148.21 111.21 144.02 115.62 138.93 119.93 C 134.16 124.69 128.87 128.47 124.66 133.70 C 121.70 137.39 118.23 140.60 115.20 144.22 C 113.73 145.88 113.46 147.83 113.39 149.97 C 113.13 159.31 113.58 168.67 113.24 178.00 C 112.74 183.70 112.50 189.28 112.66 195.00 C 112.62 214.48 112.78 233.96 112.51 253.44 Z M 353.53 145.12 C 351.69 146.57 350.34 148.36 349.14 150.35 C 348.88 151.08 348.61 151.80 348.34 152.52 C 347.99 153.94 347.64 155.35 347.17 156.74 C 346.77 179.47 347.14 202.26 346.98 225.00 C 346.99 227.68 346.81 230.22 347.77 232.78 C 347.89 233.72 348.00 234.65 348.10 235.58 C 349.97 238.34 351.17 241.17 354.11 242.91 C 359.34 246.57 364.95 246.29 371.05 245.97 C 376.48 245.03 381.52 242.54 384.13 237.45 L 384.03 239.61 C 380.81 243.13 376.83 245.79 371.97 246.23 C 365.18 247.08 358.99 245.53 352.27 245.21 C 352.66 248.03 353.10 250.85 353.54 253.67 C 358.04 254.26 362.47 254.46 367.00 254.15 C 375.69 253.54 384.59 254.36 393.24 253.45 C 395.24 251.97 393.48 250.66 393.00 248.84 C 393.50 247.67 393.99 246.50 394.48 245.32 C 394.11 241.51 394.67 237.80 394.70 234.00 C 394.54 204.39 394.88 174.75 394.54 145.15 C 390.78 141.35 387.69 137.05 384.06 133.12 C 377.24 126.07 369.63 120.15 362.31 113.67 C 359.61 111.64 356.27 110.39 353.25 108.91 C 352.22 112.30 352.64 115.53 352.64 119.00 C 352.91 127.83 351.99 136.35 353.53 145.12 Z M 255.56 433.74 C 255.13 426.15 255.35 418.60 255.31 411.00 C 255.32 367.67 255.32 324.33 255.30 281.00 C 255.32 273.51 255.38 266.02 255.54 258.54 C 247.59 257.01 239.99 258.13 232.00 258.19 C 183.11 258.20 133.84 258.16 84.99 258.22 C 82.65 258.19 80.68 257.36 78.49 256.67 C 76.57 262.11 77.41 268.85 77.67 274.56 C 79.60 287.93 82.08 301.57 86.84 314.26 C 93.05 333.99 104.60 352.51 117.24 368.75 C 121.75 374.30 124.86 379.95 130.70 384.32 C 135.83 388.15 140.35 392.68 145.48 396.50 C 156.16 404.50 167.59 411.58 179.59 417.44 C 203.14 428.43 229.53 434.53 255.56 433.74 Z M 257.55 433.41 C 262.46 433.81 267.34 433.98 272.23 433.21 C 279.25 432.20 286.23 432.06 293.09 430.03 C 303.10 428.02 312.50 424.34 322.08 420.93 C 330.59 417.39 338.98 413.94 346.55 408.57 C 351.84 404.70 357.74 401.99 362.78 397.79 C 371.41 390.88 379.60 383.44 387.49 375.71 C 397.68 363.26 407.27 349.85 414.43 335.41 C 419.50 324.42 424.49 312.83 427.06 300.98 C 430.85 287.05 433.16 272.83 432.54 258.36 C 425.65 257.48 418.92 258.40 412.00 258.20 C 396.34 258.03 380.64 258.55 365.00 257.82 C 360.66 257.81 356.36 258.29 352.01 258.04 C 346.33 257.77 340.68 258.36 334.99 257.89 C 323.00 257.76 311.00 258.37 299.00 258.19 C 287.02 258.00 274.98 258.58 263.02 257.93 C 261.09 258.05 259.01 257.00 257.86 259.00 C 258.55 275.28 258.01 291.68 258.19 308.00 C 258.41 315.70 257.51 323.31 258.10 331.00 C 258.57 337.36 257.65 343.65 258.04 350.00 C 258.54 357.69 257.49 365.31 258.11 373.00 C 258.32 388.66 258.09 404.34 258.21 420.00 C 258.29 424.49 258.03 428.94 257.55 433.41 Z" id="p19" />
<path d="M 136.69 78.21 C 138.13 79.19 139.00 80.64 138.35 82.38 C 136.38 84.59 133.59 86.14 131.20 87.88 C 130.10 86.28 128.99 84.68 127.89 83.08 C 130.48 81.41 133.51 78.36 136.69 78.21 Z" id="p20" />
<path d="M 284.04 79.17 C 293.50 81.16 303.61 83.00 312.64 86.49 C 314.47 88.51 314.27 92.44 314.22 95.00 C 313.77 101.01 313.73 106.98 313.81 113.00 C 313.55 123.07 314.74 132.99 313.59 143.05 C 312.76 143.07 311.93 143.10 311.10 143.14 C 310.97 176.73 311.09 210.37 311.05 243.96 C 311.92 243.98 312.79 243.99 313.66 244.00 C 313.69 247.25 313.73 250.50 313.77 253.75 C 307.49 254.27 301.27 253.42 295.00 253.78 C 288.07 254.16 281.19 253.47 274.27 254.15 C 274.27 251.04 274.23 247.94 274.15 244.83 C 276.12 244.24 278.10 243.66 280.08 243.08 C 280.28 241.97 280.50 240.86 280.72 239.75 L 281.43 238.47 C 281.84 237.80 282.25 237.15 282.67 236.50 C 283.43 234.03 284.07 231.61 284.00 229.00 C 283.96 221.03 284.01 213.05 283.91 205.07 C 280.68 205.04 277.44 205.05 274.21 205.03 C 273.47 196.42 273.78 187.59 274.20 178.96 C 277.44 178.95 280.68 178.94 283.92 178.91 C 283.98 172.27 283.99 165.63 283.99 159.00 C 284.01 156.41 283.52 153.92 282.94 151.42 C 280.55 147.90 278.10 144.72 274.04 143.06 C 273.83 139.03 273.87 135.02 274.08 131.00 C 274.52 113.50 273.72 95.92 274.48 78.44 C 277.71 78.28 280.87 78.47 284.04 79.17 Z M 289.02 233.33 C 289.04 235.11 289.03 236.88 289.01 238.66 C 290.52 241.01 292.17 242.56 294.46 244.14 C 296.14 243.99 297.91 244.02 299.54 243.59 C 301.34 242.65 302.56 241.24 303.88 239.75 C 304.13 238.51 304.42 237.28 304.72 236.05 C 304.38 234.81 304.06 233.57 303.76 232.32 C 302.75 231.29 301.75 230.25 300.76 229.20 C 300.05 229.01 299.34 228.83 298.63 228.65 C 295.06 227.07 290.74 230.30 289.02 233.33 Z" id="p21" />
<path d="M 233.16 78.60 C 233.87 80.70 233.85 82.81 233.87 85.00 C 233.72 101.67 233.89 118.33 233.77 135.00 C 233.73 138.64 234.06 142.25 234.51 145.86 C 233.71 146.43 232.91 146.99 232.10 147.55 C 229.93 146.42 227.74 145.23 225.42 144.40 C 216.64 142.67 207.93 143.08 199.04 143.07 C 199.05 176.70 199.02 210.33 199.06 243.96 C 205.04 243.99 211.02 243.91 217.00 244.00 C 219.90 244.05 222.77 244.04 225.61 243.36 C 226.23 243.18 226.85 243.00 227.47 242.82 C 229.45 241.80 231.48 240.77 233.29 239.47 C 234.62 244.22 234.30 248.85 233.66 253.68 C 227.75 253.49 221.90 254.20 216.00 254.16 C 208.79 253.93 201.63 254.37 194.44 253.47 C 194.94 250.64 195.35 247.85 195.02 244.96 C 195.31 240.29 195.38 235.69 195.29 231.00 C 195.29 207.00 195.26 182.99 195.31 158.99 C 195.34 154.64 194.75 150.34 194.71 146.00 C 194.58 139.64 195.53 133.36 195.36 127.00 C 195.18 114.50 195.57 101.98 195.19 89.48 C 197.85 87.46 200.27 85.49 203.53 84.50 C 213.43 81.92 222.83 79.03 233.16 78.60 Z" id="p22" />
<path d="M 385.47 86.58 C 391.95 84.05 399.57 89.18 402.03 95.12 C 403.45 98.68 401.98 101.38 400.57 104.57 C 399.20 103.42 397.84 102.28 396.49 101.12 C 396.70 99.05 397.53 96.75 396.08 94.96 C 394.64 93.11 392.46 91.37 389.99 91.44 C 387.59 91.34 385.26 93.02 383.63 94.62 C 381.54 96.79 379.52 99.89 379.82 103.03 C 380.04 105.54 382.04 107.57 384.16 108.70 C 386.60 109.82 388.52 108.67 390.87 108.03 C 392.19 109.18 393.52 110.33 394.83 111.49 C 392.31 113.09 390.18 114.77 387.00 114.62 C 379.67 114.21 372.34 106.81 374.43 99.17 C 375.91 93.90 380.28 88.54 385.47 86.58 Z" id="p23" />
<path d="M 143.01 86.49 C 144.95 87.40 146.97 90.24 145.16 92.14 C 143.21 94.35 140.37 95.90 137.95 97.56 C 136.59 95.64 135.25 93.72 133.91 91.78 C 136.65 89.90 139.66 86.98 143.01 86.49 Z" id="p24" />
<path d="M 104.80 95.61 C 105.96 96.68 107.08 97.80 108.20 98.91 C 106.35 100.84 104.49 102.77 102.62 104.69 C 107.97 109.94 113.35 115.15 118.80 120.29 C 117.49 121.64 116.18 122.99 114.87 124.33 C 109.45 119.19 104.13 113.94 98.76 108.74 C 96.85 110.68 94.97 112.63 93.10 114.60 C 91.91 113.47 90.73 112.34 89.54 111.22 C 94.67 106.07 99.51 100.60 104.80 95.61 Z" id="p25" />
<path d="M 154.55 108.91 C 155.82 113.98 155.00 118.86 155.09 123.98 C 155.38 130.37 154.22 136.66 154.56 143.06 C 153.06 143.07 151.56 143.08 150.06 143.09 C 150.05 146.44 150.29 149.52 149.27 152.77 C 149.26 158.59 148.27 164.23 147.90 170.02 C 146.76 179.63 146.20 189.36 145.15 198.98 C 145.07 202.82 144.64 206.31 143.79 210.05 L 142.93 210.13 C 142.90 205.30 143.28 200.25 142.50 195.48 C 141.41 189.38 142.35 183.02 141.77 176.78 C 139.92 170.92 141.70 164.19 140.63 158.10 C 139.72 153.07 139.95 148.15 139.97 143.08 C 134.65 143.07 129.34 143.07 124.02 143.08 C 124.03 145.80 124.06 148.52 124.26 151.23 C 125.52 155.09 124.75 158.66 125.37 162.82 C 126.28 167.85 125.83 172.94 126.81 177.98 C 126.98 184.37 127.96 190.63 128.28 197.01 C 129.24 202.32 128.84 207.67 129.81 212.99 C 129.95 219.39 131.06 225.63 131.20 232.03 C 131.76 236.02 132.22 239.90 132.11 243.94 C 137.94 243.86 143.84 244.26 149.65 243.80 L 150.79 242.64 C 151.24 238.69 150.48 235.12 151.73 231.23 C 151.96 227.88 151.88 224.67 152.41 221.35 C 153.25 216.89 152.47 212.59 154.07 208.25 C 154.58 212.19 154.70 216.03 154.62 220.01 C 154.53 225.71 155.48 231.31 155.45 237.00 C 155.55 242.38 154.27 247.36 155.47 252.72 C 154.01 253.45 152.72 254.20 151.02 254.12 C 145.02 254.23 139.02 253.71 133.00 254.00 C 126.12 254.32 119.34 254.66 112.51 253.44 C 112.78 233.96 112.62 214.48 112.66 195.00 C 112.50 189.28 112.74 183.70 113.24 178.00 C 113.58 168.67 113.13 159.31 113.39 149.97 C 113.46 147.83 113.73 145.88 115.20 144.22 C 118.23 140.60 121.70 137.39 124.66 133.70 C 128.87 128.47 134.16 124.69 138.93 119.93 C 144.02 115.62 148.21 111.21 154.55 108.91 Z" id="p26" />
<path d="M 408.43 109.46 C 417.78 106.26 427.68 116.66 424.77 125.85 C 423.17 131.11 417.46 136.12 412.05 137.09 C 403.32 139.03 394.57 129.49 396.88 120.98 C 398.20 115.50 403.22 111.18 408.43 109.46 Z M 410.49 114.70 C 406.85 115.99 403.01 119.17 401.99 123.02 C 400.93 128.04 405.67 133.05 410.78 131.71 C 414.68 130.51 419.04 127.21 419.83 122.98 C 420.97 117.93 415.48 112.72 410.49 114.70 Z" id="p27" />
<path d="M 353.25 108.91 C 356.27 110.39 359.61 111.64 362.31 113.67 C 369.63 120.15 377.24 126.07 384.06 133.12 C 387.69 137.05 390.78 141.35 394.54 145.15 C 394.88 174.75 394.54 204.39 394.70 234.00 C 394.67 237.80 394.11 241.51 394.48 245.32 C 393.99 246.50 393.50 247.67 393.00 248.84 C 393.48 250.66 395.24 251.97 393.24 253.45 C 384.59 254.36 375.69 253.54 367.00 254.15 C 362.47 254.46 358.04 254.26 353.54 253.67 C 353.10 250.85 352.66 248.03 352.27 245.21 C 358.99 245.53 365.18 247.08 371.97 246.23 C 376.83 245.79 380.81 243.13 384.03 239.61 L 384.13 237.45 C 384.95 234.60 386.06 232.05 386.01 229.01 C 385.98 221.03 385.99 213.05 385.92 205.07 C 380.63 205.02 375.35 205.03 370.07 205.08 C 369.92 212.40 370.15 219.74 370.01 227.06 C 369.97 228.67 368.76 231.84 366.94 232.03 C 364.68 232.67 364.40 230.10 363.32 228.69 C 362.72 223.39 362.99 218.33 362.95 213.00 C 362.94 198.33 362.98 183.67 362.93 169.00 C 362.98 164.90 362.54 161.26 364.27 157.41 C 365.02 155.86 366.05 155.49 367.61 156.19 C 368.52 157.13 369.28 158.28 370.06 159.35 C 370.00 165.88 370.00 172.40 370.08 178.93 C 375.36 178.95 380.63 178.92 385.91 178.93 C 385.98 172.62 385.99 166.31 385.98 160.00 C 385.95 154.81 384.85 149.77 380.81 146.19 C 375.60 140.60 366.35 141.97 359.46 142.22 C 357.42 143.06 355.44 144.04 353.53 145.12 C 351.99 136.35 352.91 127.83 352.64 119.00 C 352.64 115.53 352.22 112.30 353.25 108.91 Z" id="p28" />
<path d="M 410.49 114.70 C 415.48 112.72 420.97 117.93 419.83 122.98 C 419.04 127.21 414.68 130.51 410.78 131.71 C 405.67 133.05 400.93 128.04 401.99 123.02 C 403.01 119.17 406.85 115.99 410.49 114.70 Z" id="p29" />
<path d="M 83.15 120.11 C 86.19 118.84 88.58 120.09 91.46 121.00 C 90.39 122.39 89.31 123.78 88.21 125.15 C 86.85 125.07 85.50 125.09 84.16 125.21 C 81.75 126.34 79.69 129.07 80.17 131.85 C 81.18 133.31 82.09 134.26 83.99 133.41 C 87.56 131.27 90.95 127.09 95.01 125.91 C 100.13 124.83 104.99 129.99 104.21 135.04 C 103.58 139.33 99.90 144.30 95.87 145.98 C 92.72 147.39 90.07 146.29 87.04 145.24 C 88.08 143.79 89.14 142.34 90.18 140.89 C 91.67 140.98 93.43 141.34 94.84 140.79 C 97.05 139.58 98.73 137.37 99.38 134.95 C 99.34 133.34 98.36 132.25 97.07 131.43 C 92.80 131.99 89.66 136.97 85.76 138.73 C 80.69 141.42 73.76 135.72 75.19 130.19 C 76.26 126.13 79.18 121.79 83.15 120.11 Z" id="p30" />
<path d="M 435.57 132.03 C 436.60 133.57 437.56 135.15 438.54 136.73 C 432.25 140.61 426.01 144.56 419.70 148.41 C 421.89 152.29 424.31 156.01 426.64 159.81 C 425.24 160.73 423.85 161.66 422.46 162.59 C 419.06 157.27 415.85 151.84 412.39 146.56 C 419.99 141.55 427.76 136.70 435.57 132.03 Z" id="p31" />
<path d="M 67.65 141.17 C 69.01 141.93 70.38 142.69 71.75 143.45 C 69.46 147.62 67.22 151.80 64.90 155.95 C 66.59 156.91 68.28 157.88 69.97 158.84 C 72.05 154.98 74.17 151.14 76.38 147.36 C 77.71 148.13 79.04 148.90 80.37 149.69 C 78.21 153.46 76.18 157.29 74.08 161.08 C 76.13 162.20 78.18 163.33 80.23 164.47 C 82.66 160.12 85.06 155.76 87.48 151.40 C 88.95 152.19 90.42 152.98 91.89 153.77 C 88.65 159.82 85.24 165.77 81.94 171.79 C 73.98 167.37 66.03 162.94 58.04 158.56 C 61.20 152.74 64.46 146.97 67.65 141.17 Z" id="p32" />
<path d="M 266.00 141.95 C 268.25 141.98 270.35 141.92 272.52 142.60 L 274.04 143.06 C 278.10 144.72 280.55 147.90 282.94 151.42 C 283.52 153.92 284.01 156.41 283.99 159.00 C 283.99 165.63 283.98 172.27 283.92 178.91 C 280.68 178.94 277.44 178.95 274.20 178.96 C 272.15 178.96 270.09 178.95 268.04 178.93 C 267.95 172.08 267.96 165.23 268.04 158.39 C 267.15 157.52 266.25 156.67 265.34 155.82 C 264.40 155.97 263.51 156.22 262.65 156.59 C 261.17 160.30 260.90 164.04 260.97 168.00 C 261.12 187.42 260.82 206.86 261.13 226.28 C 261.53 227.48 261.89 228.70 262.21 229.93 C 263.12 230.46 264.51 232.43 265.57 231.98 C 266.50 230.91 267.26 229.74 268.05 228.57 C 267.94 220.70 267.94 212.80 268.06 204.92 C 270.11 204.97 272.16 205.01 274.21 205.03 C 277.44 205.05 280.68 205.04 283.91 205.07 C 284.01 213.05 283.96 221.03 284.00 229.00 C 284.07 231.61 283.43 234.03 282.67 236.50 C 282.25 237.15 281.84 237.80 281.43 238.47 L 280.72 239.75 C 278.78 242.22 276.23 243.53 273.47 244.88 C 272.85 245.04 272.23 245.21 271.60 245.37 C 266.75 246.42 260.90 246.45 256.13 244.95 C 252.46 243.96 249.92 240.23 247.24 237.66 C 246.95 236.58 246.63 235.51 246.28 234.45 C 245.64 231.64 244.93 228.91 244.99 226.00 C 244.99 204.67 245.02 183.33 244.98 162.00 C 244.95 159.85 245.21 157.96 245.83 155.91 C 245.92 154.78 246.01 153.64 246.09 152.51 C 247.94 149.01 249.62 145.97 253.37 144.18 C 254.05 143.83 254.72 143.48 255.39 143.12 C 258.89 141.61 262.30 142.02 266.00 141.95 Z" id="p33" />
<path d="M 359.46 142.22 C 366.35 141.97 375.60 140.60 380.81 146.19 C 384.85 149.77 385.95 154.81 385.98 160.00 C 385.99 166.31 385.98 172.62 385.91 178.93 C 380.63 178.92 375.36 178.95 370.08 178.93 C 370.00 172.40 370.00 165.88 370.06 159.35 C 369.28 158.28 368.52 157.13 367.61 156.19 C 366.05 155.49 365.02 155.86 364.27 157.41 C 362.54 161.26 362.98 164.90 362.93 169.00 C 362.98 183.67 362.94 198.33 362.95 213.00 C 362.99 218.33 362.72 223.39 363.32 228.69 C 364.40 230.10 364.68 232.67 366.94 232.03 C 368.76 231.84 369.97 228.67 370.01 227.06 C 370.15 219.74 369.92 212.40 370.07 205.08 C 375.35 205.03 380.63 205.02 385.92 205.07 C 385.99 213.05 385.98 221.03 386.01 229.01 C 386.06 232.05 384.95 234.60 384.13 237.45 C 381.52 242.54 376.48 245.03 371.05 245.97 C 364.95 246.29 359.34 246.57 354.11 242.91 C 351.17 241.17 349.97 238.34 348.10 235.58 C 348.00 234.65 347.89 233.72 347.77 232.78 C 346.81 230.22 346.99 227.68 346.98 225.00 C 347.14 202.26 346.77 179.47 347.17 156.74 C 347.64 155.35 347.99 153.94 348.34 152.52 C 348.61 151.80 348.88 151.08 349.14 150.35 C 350.34 148.36 351.69 146.57 353.53 145.12 C 355.44 144.04 357.42 143.06 359.46 142.22 Z" id="p34" />
<path d="M 124.02 143.08 C 129.34 143.07 134.65 143.07 139.97 143.08 C 139.95 148.15 139.72 153.07 140.63 158.10 C 141.70 164.19 139.92 170.92 141.77 176.78 C 142.35 183.02 141.41 189.38 142.50 195.48 C 143.28 200.25 142.90 205.30 142.93 210.13 L 143.79 210.05 C 144.64 206.31 145.07 202.82 145.15 198.98 C 146.20 189.36 146.76 179.63 147.90 170.02 C 148.27 164.23 149.26 158.59 149.27 152.77 C 150.29 149.52 150.05 146.44 150.06 143.09 C 151.56 143.08 153.06 143.07 154.56 143.06 C 159.04 143.04 163.51 143.04 167.99 143.03 C 168.00 146.61 167.79 149.95 168.51 153.47 C 169.54 158.21 168.43 162.78 169.52 167.49 C 170.52 172.15 169.48 176.73 170.52 181.45 C 171.48 185.90 170.57 190.26 171.35 194.65 C 172.38 199.25 171.94 204.21 171.99 208.99 L 174.01 209.16 C 174.12 203.74 173.53 197.91 174.68 192.64 C 175.40 188.27 174.58 183.50 175.32 179.11 C 176.74 173.09 175.26 167.05 176.74 161.00 C 177.27 154.92 176.62 149.01 178.23 143.00 C 183.53 143.08 188.83 143.02 194.13 143.04 C 192.97 147.29 192.96 151.64 192.21 155.96 C 191.59 163.73 190.31 171.44 189.73 179.22 C 188.82 182.15 189.09 184.94 188.64 187.94 C 186.99 199.79 186.16 211.98 184.22 223.74 C 184.03 226.24 183.97 228.74 183.79 231.24 C 182.55 235.40 183.15 239.82 181.80 244.04 C 175.54 243.97 169.28 244.06 163.02 243.99 C 162.99 240.23 163.28 236.18 162.48 232.53 C 161.70 228.74 162.15 224.68 161.83 220.78 C 160.31 217.05 161.48 212.54 160.65 208.53 C 159.67 204.24 160.13 200.11 159.81 195.76 C 158.02 191.34 159.96 186.69 158.19 182.26 C 158.00 179.32 158.03 176.39 157.98 173.44 C 157.33 174.80 156.73 176.19 156.07 177.56 C 156.00 180.78 156.02 184.00 155.81 187.22 C 154.15 191.12 155.76 195.64 154.31 199.74 C 154.13 202.57 154.13 205.41 154.07 208.25 C 152.47 212.59 153.25 216.89 152.41 221.35 C 151.88 224.67 151.96 227.88 151.73 231.23 C 150.48 235.12 151.24 238.69 150.79 242.64 L 149.65 243.80 C 143.84 244.26 137.94 243.86 132.11 243.94 C 132.22 239.90 131.76 236.02 131.20 232.03 C 131.06 225.63 129.95 219.39 129.81 212.99 C 128.84 207.67 129.24 202.32 128.28 197.01 C 127.96 190.63 126.98 184.37 126.81 177.98 C 125.83 172.94 126.28 167.85 125.37 162.82 C 124.75 158.66 125.52 155.09 124.26 151.23 C 124.06 148.52 124.03 145.80 124.02 143.08 Z" id="p35" />
<path d="M 199.04 143.07 C 207.93 143.08 216.64 142.67 225.42 144.40 C 227.74 145.23 229.93 146.42 232.10 147.55 C 234.26 149.91 235.51 152.60 236.79 155.48 C 238.41 162.01 238.13 168.59 237.82 175.25 C 237.24 176.95 237.00 178.71 236.75 180.47 C 236.28 181.49 235.81 182.50 235.34 183.51 C 234.64 184.58 233.92 185.64 233.16 186.66 C 230.54 188.45 227.65 189.57 224.63 190.46 C 225.59 190.85 226.55 191.25 227.51 191.66 C 229.55 192.16 231.35 192.77 232.96 194.16 C 233.82 195.24 234.64 196.35 235.45 197.48 C 237.66 203.26 238.16 209.86 238.01 216.00 C 238.10 223.06 238.02 231.24 234.36 237.50 C 234.01 238.16 233.65 238.82 233.29 239.47 C 231.48 240.77 229.45 241.80 227.47 242.82 C 226.85 243.00 226.23 243.18 225.61 243.36 C 222.77 244.04 219.90 244.05 217.00 244.00 C 211.02 243.91 205.04 243.99 199.06 243.96 C 199.02 210.33 199.05 176.70 199.04 143.07 Z M 214.89 157.12 C 215.00 166.77 214.98 176.42 214.92 186.06 C 216.23 186.07 217.53 186.08 218.83 186.10 C 220.18 184.25 221.90 182.46 221.97 180.03 C 222.16 174.69 222.03 169.32 222.06 163.98 C 222.23 160.95 220.46 159.15 218.82 156.87 C 217.51 156.95 216.20 157.04 214.89 157.12 Z M 215.06 198.19 C 214.80 208.75 215.07 219.33 214.91 229.90 C 216.66 229.99 218.40 230.07 220.15 230.16 C 221.05 228.10 222.15 226.36 222.05 224.03 C 222.04 216.21 222.09 208.38 221.96 200.57 C 221.51 199.77 221.07 198.98 220.64 198.18 C 219.31 197.78 217.98 197.37 216.64 196.98 C 216.11 197.37 215.58 197.77 215.06 198.19 Z" id="p36" />
<path d="M 311.10 143.14 C 311.93 143.10 312.76 143.07 313.59 143.05 C 322.72 143.02 331.85 143.05 340.98 143.03 C 341.02 147.69 340.99 152.34 340.99 156.99 C 336.30 157.02 331.60 157.00 326.91 157.00 C 327.09 164.99 326.96 172.99 327.00 180.98 C 331.66 181.00 336.32 180.99 340.98 181.00 C 341.01 185.67 341.01 190.33 340.98 195.00 C 336.32 195.01 331.66 195.00 327.00 195.02 C 326.97 211.33 327.05 227.64 326.96 243.95 C 322.52 244.01 318.09 244.05 313.66 244.00 C 312.79 243.99 311.92 243.98 311.05 243.96 C 311.09 210.37 310.97 176.73 311.10 143.14 Z" id="p37" />
<path d="M 448.18 152.21 C 451.17 158.83 454.32 165.37 457.32 171.98 C 455.85 172.66 454.39 173.35 452.93 174.04 C 451.82 171.62 450.71 169.20 449.60 166.78 C 442.71 169.73 436.02 173.11 429.19 176.19 C 428.36 174.49 427.54 172.80 426.70 171.11 C 433.53 168.02 440.35 164.87 447.10 161.61 C 446.00 159.14 444.86 156.69 443.75 154.22 C 445.23 153.55 446.70 152.88 448.18 152.21 Z" id="p38" />
<path d="M 265.34 155.82 C 266.25 156.67 267.15 157.52 268.04 158.39 C 267.96 165.23 267.95 172.08 268.04 178.93 C 270.09 178.95 272.15 178.96 274.20 178.96 C 273.78 187.59 273.47 196.42 274.21 205.03 C 272.16 205.01 270.11 204.97 268.06 204.92 C 267.94 212.80 267.94 220.70 268.05 228.57 C 267.26 229.74 266.50 230.91 265.57 231.98 C 264.51 232.43 263.12 230.46 262.21 229.93 C 261.89 228.70 261.53 227.48 261.13 226.28 C 260.82 206.86 261.12 187.42 260.97 168.00 C 260.90 164.04 261.17 160.30 262.65 156.59 C 263.51 156.22 264.40 155.97 265.34 155.82 Z" id="p39" />
<path d="M 214.89 157.12 C 216.20 157.04 217.51 156.95 218.82 156.87 C 220.46 159.15 222.23 160.95 222.06 163.98 C 222.03 169.32 222.16 174.69 221.97 180.03 C 221.90 182.46 220.18 184.25 218.83 186.10 C 217.53 186.08 216.23 186.07 214.92 186.06 C 214.98 176.42 215.00 166.77 214.89 157.12 Z" id="p40" />
<path d="M 53.31 166.56 C 61.09 171.97 68.76 177.52 76.63 182.80 C 76.07 184.52 75.52 186.24 74.98 187.97 C 67.95 187.06 60.94 186.01 53.90 185.20 C 59.97 188.86 66.08 192.43 72.18 196.03 C 70.97 198.49 71.58 201.26 67.93 201.02 C 67.32 199.10 67.60 199.66 66.20 200.64 C 58.12 200.58 50.03 199.99 41.95 199.52 C 42.61 197.75 43.20 195.92 44.02 194.22 C 50.52 194.47 56.99 195.46 63.48 195.85 C 57.90 192.54 52.32 189.20 46.71 185.93 C 47.34 184.05 47.96 182.17 48.58 180.28 C 55.07 180.97 61.52 181.96 68.00 182.74 C 62.58 179.07 56.97 175.65 51.48 172.08 C 51.77 171.22 52.05 170.35 52.34 169.48 C 52.67 168.51 52.99 167.53 53.31 166.56 Z" id="p41" />
<path d="M 461.08 182.94 C 463.83 186.37 465.47 191.64 464.02 195.91 C 463.08 198.52 461.00 199.43 458.86 200.85 C 458.34 199.25 457.83 197.64 457.32 196.03 C 458.11 195.01 459.02 193.99 459.62 192.84 C 460.14 190.66 459.21 187.95 457.68 186.36 C 456.40 185.12 454.65 185.45 453.35 186.48 C 452.45 191.06 454.13 196.32 452.94 200.87 C 451.16 206.19 442.57 207.14 439.32 202.67 C 436.34 198.94 434.59 193.00 436.48 188.44 C 437.46 185.91 439.61 185.04 441.72 183.61 C 442.24 185.27 442.74 186.94 443.24 188.60 C 442.32 189.91 440.87 191.37 440.65 193.00 C 440.63 195.59 441.67 198.78 443.99 200.21 C 445.12 200.26 447.33 199.99 447.63 198.65 C 448.81 194.13 446.23 187.76 448.58 183.53 C 451.24 179.81 458.24 178.85 461.08 182.94 Z" id="p42" />
<path d="M 233.16 186.66 C 234.65 190.08 234.68 190.85 232.96 194.16 C 231.35 192.77 229.55 192.16 227.51 191.66 C 226.55 191.25 225.59 190.85 224.63 190.46 C 227.65 189.57 230.54 188.45 233.16 186.66 Z" id="p43" />
<path d="M 216.64 196.98 C 217.98 197.37 219.31 197.78 220.64 198.18 C 221.07 198.98 221.51 199.77 221.96 200.57 C 222.09 208.38 222.04 216.21 222.05 224.03 C 222.15 226.36 221.05 228.10 220.15 230.16 C 218.40 230.07 216.66 229.99 214.91 229.90 C 215.07 219.33 214.80 208.75 215.06 198.19 C 215.58 197.77 216.11 197.37 216.64 196.98 Z" id="p44" />
<path d="M 298.63 228.65 C 299.34 228.83 300.05 229.01 300.76 229.20 C 301.75 230.25 302.75 231.29 303.76 232.32 C 304.06 233.57 304.38 234.81 304.72 236.05 C 304.42 237.28 304.13 238.51 303.88 239.75 C 302.56 241.24 301.34 242.65 299.54 243.59 C 297.91 244.02 296.14 243.99 294.46 244.14 C 292.17 242.56 290.52 241.01 289.01 238.66 C 289.03 236.88 289.04 235.11 289.02 233.33 C 290.74 230.30 295.06 227.07 298.63 228.65 Z" id="p45" />
<path d="M 78.49 256.67 C 80.68 257.36 82.65 258.19 84.99 258.22 C 133.84 258.16 183.11 258.20 232.00 258.19 C 239.99 258.13 247.59 257.01 255.54 258.54 C 255.38 266.02 255.32 273.51 255.30 281.00 C 255.32 324.33 255.32 367.67 255.31 411.00 C 255.35 418.60 255.13 426.15 255.56 433.74 C 229.53 434.53 203.14 428.43 179.59 417.44 C 167.59 411.58 156.16 404.50 145.48 396.50 C 140.35 392.68 135.83 388.15 130.70 384.32 C 124.86 379.95 121.75 374.30 117.24 368.75 C 104.60 352.51 93.05 333.99 86.84 314.26 C 82.08 301.57 79.60 287.93 77.67 274.56 C 77.41 268.85 76.57 262.11 78.49 256.67 Z M 165.17 381.19 C 167.84 382.26 170.07 383.71 173.03 384.01 C 178.31 384.64 183.70 384.73 189.01 384.45 C 196.56 384.11 204.24 380.38 210.93 377.07 C 216.63 373.82 222.72 369.40 225.79 363.44 C 228.52 358.86 231.93 355.28 233.60 350.07 C 235.54 343.97 238.12 338.50 237.65 332.00 C 237.10 326.10 237.67 319.59 235.61 314.13 C 234.11 309.69 232.09 305.38 229.75 301.32 C 225.45 294.00 219.26 288.33 212.12 283.84 C 207.07 280.52 201.56 277.96 195.71 276.40 C 190.41 275.07 184.46 275.46 179.00 275.42 C 171.71 275.27 164.18 278.37 157.60 281.28 C 146.27 287.18 136.65 297.40 132.38 309.54 C 130.91 313.60 129.21 317.80 128.60 322.10 C 127.75 330.22 128.02 338.36 130.66 346.15 C 132.84 354.80 137.81 361.77 143.66 368.32 C 147.36 372.01 151.92 374.89 156.22 377.84 C 158.99 379.81 162.05 380.12 165.17 381.19 Z" id="p46" />
<path d="M 263.02 257.93 C 274.98 258.58 287.02 258.00 299.00 258.19 C 311.00 258.37 323.00 257.76 334.99 257.89 C 340.68 258.36 346.33 257.77 352.01 258.04 C 356.36 258.29 360.66 257.81 365.00 257.82 C 380.64 258.55 396.34 258.03 412.00 258.20 C 418.92 258.40 425.65 257.48 432.54 258.36 C 433.16 272.83 430.85 287.05 427.06 300.98 C 424.49 312.83 419.50 324.42 414.43 335.41 C 407.27 349.85 397.68 363.26 387.49 375.71 C 379.60 383.44 371.41 390.88 362.78 397.79 C 357.74 401.99 351.84 404.70 346.55 408.57 C 338.98 413.94 330.59 417.39 322.08 420.93 C 312.50 424.34 303.10 428.02 293.09 430.03 C 286.23 432.06 279.25 432.20 272.23 433.21 C 267.34 433.98 262.46 433.81 257.55 433.41 C 258.03 428.94 258.29 424.49 258.21 420.00 C 258.09 404.34 258.32 388.66 258.11 373.00 C 257.49 365.31 258.54 357.69 258.04 350.00 C 257.65 343.65 258.57 337.36 258.10 331.00 C 257.51 323.31 258.41 315.70 258.19 308.00 C 258.01 291.68 258.55 275.28 257.86 259.00 C 259.01 257.00 261.09 258.05 263.02 257.93 Z M 327.02 267.60 C 327.85 269.73 328.99 271.88 329.43 274.14 C 328.66 277.34 327.17 280.01 327.47 283.43 C 327.78 286.51 325.84 288.73 325.51 291.58 C 326.05 297.16 327.90 302.77 330.22 307.85 C 331.81 311.46 332.97 315.02 332.13 319.02 C 331.22 323.68 327.50 327.05 323.89 329.80 C 320.16 332.50 316.24 335.23 311.98 337.03 C 308.17 338.58 304.51 338.06 300.64 338.69 C 296.92 339.77 294.16 342.88 289.96 342.14 C 287.36 341.83 285.18 339.81 285.30 337.09 C 286.02 333.45 289.17 329.82 289.39 326.02 C 289.23 322.97 287.98 319.85 287.05 316.96 C 282.10 315.59 278.56 315.34 273.59 316.85 C 269.86 321.56 266.30 325.68 265.92 331.99 C 264.80 342.87 271.55 354.67 276.70 363.91 C 277.71 362.27 278.57 360.33 279.94 358.95 C 282.28 357.49 284.80 356.53 286.85 354.60 C 285.50 352.21 284.63 350.06 284.65 347.28 C 287.62 347.36 290.59 347.44 293.55 347.51 C 294.22 351.03 294.83 354.41 294.41 358.02 C 294.05 361.45 292.70 364.33 291.33 367.43 C 289.03 367.88 286.74 368.33 284.45 368.77 C 284.28 375.05 283.69 380.77 286.21 386.72 C 288.14 391.07 290.23 395.44 292.43 399.66 C 295.03 400.91 298.15 401.00 300.79 402.19 C 302.55 403.12 303.94 404.96 305.29 406.40 C 306.98 406.05 308.66 405.70 310.33 405.33 C 306.51 400.25 298.80 398.98 294.83 394.17 C 292.69 391.11 292.31 386.62 291.87 382.99 C 291.35 378.78 292.82 373.81 297.06 372.09 C 304.30 368.63 314.09 367.67 318.93 360.97 C 321.40 358.20 321.11 354.77 322.78 351.77 C 330.31 347.67 341.69 351.23 349.77 348.84 C 353.75 347.65 354.91 344.52 357.55 341.79 C 361.07 340.67 364.88 340.62 368.43 339.48 C 370.66 339.01 373.66 337.65 375.69 339.26 C 378.04 340.68 377.56 343.65 377.82 346.00 C 377.76 349.00 378.26 351.75 376.21 354.20 C 374.25 356.74 373.06 359.07 372.01 362.11 C 370.23 363.76 368.49 365.44 366.84 367.21 C 369.06 367.74 370.19 368.82 372.08 366.96 C 376.20 363.14 381.12 358.40 382.69 352.86 C 383.43 348.02 382.64 342.88 382.50 338.00 C 382.63 334.31 378.27 331.91 376.34 329.08 C 376.27 328.12 376.53 327.17 377.14 326.25 C 379.47 322.66 382.56 319.49 385.42 316.31 C 386.70 317.35 388.11 318.37 389.17 319.64 C 392.99 326.11 391.52 334.62 386.11 339.74 C 386.57 340.91 386.72 341.96 387.88 342.67 C 390.27 340.87 392.48 338.73 394.21 336.27 C 395.85 334.29 394.91 331.37 394.87 328.99 C 394.35 324.10 395.07 318.40 393.17 313.87 C 392.29 311.42 389.61 309.46 387.00 309.59 C 379.68 311.37 375.79 317.28 368.46 318.00 C 366.65 311.98 364.29 304.82 359.32 300.64 C 355.42 297.17 351.45 293.78 347.82 290.01 C 350.78 287.47 353.72 284.90 356.72 282.40 C 359.25 282.94 361.40 283.88 363.97 283.04 C 362.95 281.49 361.62 280.26 360.24 279.04 C 361.94 277.73 363.60 276.40 365.24 275.02 C 363.61 273.81 361.76 271.75 359.64 271.54 C 356.70 271.16 353.66 271.34 350.70 271.44 C 348.68 273.60 347.60 274.60 344.55 274.95 C 344.47 273.52 344.39 272.09 344.31 270.66 C 346.00 270.19 347.68 269.72 349.37 269.24 C 347.57 268.52 345.77 267.79 343.98 267.06 C 343.15 265.99 342.31 264.92 341.43 263.90 C 336.81 266.11 331.71 265.56 327.02 267.60 Z M 311.44 368.71 C 311.87 373.70 311.35 378.71 311.70 383.67 C 318.06 386.47 327.96 386.20 334.94 387.64 C 335.65 389.04 336.23 390.62 337.21 391.85 C 338.84 393.22 340.97 394.05 342.52 395.50 C 343.47 396.74 344.20 398.19 344.96 399.55 C 346.54 399.36 348.12 399.18 349.70 398.98 C 349.53 398.25 349.37 397.53 349.20 396.81 C 345.20 393.55 344.68 388.27 340.44 385.56 C 338.03 383.86 334.82 383.68 331.98 383.15 C 328.44 382.62 324.94 381.05 321.50 379.91 C 322.22 376.94 322.75 374.13 324.59 371.60 C 325.56 370.09 326.92 368.62 327.52 366.92 C 327.55 363.14 325.41 359.12 323.67 355.83 C 321.99 358.39 320.75 361.35 318.80 363.71 C 316.67 365.72 313.91 367.16 311.44 368.71 Z" id="p47" />
<path d="M 341.43 263.90 C 342.31 264.92 343.15 265.99 343.98 267.06 C 345.77 267.79 347.57 268.52 349.37 269.24 C 347.68 269.72 346.00 270.19 344.31 270.66 C 344.39 272.09 344.47 273.52 344.55 274.95 C 347.60 274.60 348.68 273.60 350.70 271.44 C 353.66 271.34 356.70 271.16 359.64 271.54 C 361.76 271.75 363.61 273.81 365.24 275.02 C 363.60 276.40 361.94 277.73 360.24 279.04 C 361.62 280.26 362.95 281.49 363.97 283.04 C 361.40 283.88 359.25 282.94 356.72 282.40 C 353.72 284.90 350.78 287.47 347.82 290.01 C 351.45 293.78 355.42 297.17 359.32 300.64 C 364.29 304.82 366.65 311.98 368.46 318.00 C 375.79 317.28 379.68 311.37 387.00 309.59 C 389.61 309.46 392.29 311.42 393.17 313.87 C 395.07 318.40 394.35 324.10 394.87 328.99 C 394.91 331.37 395.85 334.29 394.21 336.27 C 392.48 338.73 390.27 340.87 387.88 342.67 C 386.72 341.96 386.57 340.91 386.11 339.74 C 391.52 334.62 392.99 326.11 389.17 319.64 C 388.11 318.37 386.70 317.35 385.42 316.31 C 382.56 319.49 379.47 322.66 377.14 326.25 C 376.53 327.17 376.27 328.12 376.34 329.08 C 378.27 331.91 382.63 334.31 382.50 338.00 C 382.64 342.88 383.43 348.02 382.69 352.86 C 381.12 358.40 376.20 363.14 372.08 366.96 C 370.19 368.82 369.06 367.74 366.84 367.21 C 368.49 365.44 370.23 363.76 372.01 362.11 C 373.06 359.07 374.25 356.74 376.21 354.20 C 378.26 351.75 377.76 349.00 377.82 346.00 C 377.56 343.65 378.04 340.68 375.69 339.26 C 373.66 337.65 370.66 339.01 368.43 339.48 C 364.88 340.62 361.07 340.67 357.55 341.79 C 354.91 344.52 353.75 347.65 349.77 348.84 C 341.69 351.23 330.31 347.67 322.78 351.77 C 321.11 354.77 321.40 358.20 318.93 360.97 C 314.09 367.67 304.30 368.63 297.06 372.09 C 292.82 373.81 291.35 378.78 291.87 382.99 C 292.31 386.62 292.69 391.11 294.83 394.17 C 298.80 398.98 306.51 400.25 310.33 405.33 C 308.66 405.70 306.98 406.05 305.29 406.40 C 303.94 404.96 302.55 403.12 300.79 402.19 C 298.15 401.00 295.03 400.91 292.43 399.66 C 290.23 395.44 288.14 391.07 286.21 386.72 C 283.69 380.77 284.28 375.05 284.45 368.77 C 286.74 368.33 289.03 367.88 291.33 367.43 C 292.70 364.33 294.05 361.45 294.41 358.02 C 294.83 354.41 294.22 351.03 293.55 347.51 C 290.59 347.44 287.62 347.36 284.65 347.28 C 284.63 350.06 285.50 352.21 286.85 354.60 C 284.80 356.53 282.28 357.49 279.94 358.95 C 278.57 360.33 277.71 362.27 276.70 363.91 C 271.55 354.67 264.80 342.87 265.92 331.99 C 266.30 325.68 269.86 321.56 273.59 316.85 C 278.56 315.34 282.10 315.59 287.05 316.96 C 287.98 319.85 289.23 322.97 289.39 326.02 C 289.17 329.82 286.02 333.45 285.30 337.09 C 285.18 339.81 287.36 341.83 289.96 342.14 C 294.16 342.88 296.92 339.77 300.64 338.69 C 304.51 338.06 308.17 338.58 311.98 337.03 C 316.24 335.23 320.16 332.50 323.89 329.80 C 327.50 327.05 331.22 323.68 332.13 319.02 C 332.97 315.02 331.81 311.46 330.22 307.85 C 327.90 302.77 326.05 297.16 325.51 291.58 C 325.84 288.73 327.78 286.51 327.47 283.43 C 327.17 280.01 328.66 277.34 329.43 274.14 C 328.99 271.88 327.85 269.73 327.02 267.60 C 331.71 265.56 336.81 266.11 341.43 263.90 Z" id="p48" />
<path d="M 179.00 275.42 C 184.46 275.46 190.41 275.07 195.71 276.40 C 201.56 277.96 207.07 280.52 212.12 283.84 C 219.26 288.33 225.45 294.00 229.75 301.32 C 232.09 305.38 234.11 309.69 235.61 314.13 C 237.67 319.59 237.10 326.10 237.65 332.00 C 238.12 338.50 235.54 343.97 233.60 350.07 C 231.93 355.28 228.52 358.86 225.79 363.44 C 222.72 369.40 216.63 373.82 210.93 377.07 C 204.24 380.38 196.56 384.11 189.01 384.45 C 183.70 384.73 178.31 384.64 173.03 384.01 C 170.07 383.71 167.84 382.26 165.17 381.19 C 162.05 380.12 158.99 379.81 156.22 377.84 C 151.92 374.89 147.36 372.01 143.66 368.32 C 137.81 361.77 132.84 354.80 130.66 346.15 C 128.02 338.36 127.75 330.22 128.60 322.10 C 129.21 317.80 130.91 313.60 132.38 309.54 C 136.65 297.40 146.27 287.18 157.60 281.28 C 164.18 278.37 171.71 275.27 179.00 275.42 Z M 164.41 280.70 C 163.78 280.86 163.14 281.01 162.50 281.16 C 160.08 282.44 157.76 283.83 155.40 285.21 C 152.64 286.93 149.87 288.80 147.54 291.08 C 149.19 292.79 151.25 293.85 153.46 294.66 C 155.93 293.78 158.31 292.12 160.56 290.78 C 161.89 290.02 163.20 289.22 164.49 288.40 C 165.70 287.54 166.86 286.62 168.04 285.71 C 168.02 283.72 167.97 281.73 167.95 279.74 C 166.75 280.01 165.57 280.33 164.41 280.70 Z M 198.00 279.73 C 197.99 281.97 198.00 284.21 198.00 286.44 C 199.81 287.53 201.59 288.67 203.44 289.70 C 206.56 291.31 209.46 293.28 212.58 294.90 C 214.38 293.74 216.16 292.56 218.00 291.48 L 218.01 290.61 C 215.11 288.68 212.41 286.49 209.45 284.65 C 208.17 283.76 206.86 282.91 205.55 282.05 C 204.90 281.98 204.25 281.92 203.59 281.85 C 202.87 281.46 202.13 281.07 201.39 280.70 L 200.49 280.27 C 199.66 280.08 198.83 279.90 198.00 279.73 Z M 164.48 290.30 C 163.50 290.75 162.53 291.20 161.55 291.66 C 160.53 292.31 159.54 293.00 158.54 293.69 C 156.96 294.50 155.38 295.13 154.11 296.39 C 153.81 301.51 154.11 306.69 153.97 311.82 C 156.00 313.44 158.14 314.64 160.48 315.73 C 161.88 316.56 163.20 317.51 164.58 318.37 C 166.06 319.03 167.57 319.63 169.08 320.20 C 170.44 319.13 171.87 318.18 173.32 317.25 C 176.32 315.86 179.01 313.95 182.00 312.55 C 181.88 307.19 182.24 301.78 181.87 296.45 C 181.12 295.78 180.34 295.15 179.53 294.55 C 178.18 293.78 176.84 292.99 175.46 292.27 C 174.10 291.44 172.81 290.51 171.47 289.64 C 170.31 289.09 169.15 288.50 167.94 288.06 C 166.74 288.72 165.64 289.57 164.48 290.30 Z M 190.51 292.29 C 189.52 292.75 188.53 293.22 187.55 293.70 C 186.03 294.61 184.54 295.58 183.00 296.47 C 183.10 301.51 182.78 306.59 183.11 311.62 C 183.90 312.24 184.73 312.82 185.59 313.35 C 187.98 314.63 190.22 316.13 192.70 317.25 C 194.06 318.08 195.36 318.96 196.63 319.92 C 197.24 319.93 197.85 319.93 198.46 319.94 C 201.18 318.45 203.80 316.82 206.45 315.23 C 207.49 314.65 208.51 314.04 209.54 313.44 C 210.24 312.74 212.02 311.99 211.95 310.93 C 212.06 306.13 212.19 301.24 211.87 296.45 C 211.14 295.80 210.38 295.18 209.58 294.60 C 208.56 294.19 207.53 293.76 206.51 293.32 C 203.73 291.52 200.91 289.71 198.01 288.10 C 195.27 289.14 192.93 290.74 190.51 292.29 Z M 150.39 315.23 L 149.63 315.67 C 148.22 316.49 146.86 317.41 145.45 318.25 C 143.14 319.35 141.01 320.57 138.99 322.16 C 138.97 327.02 139.03 331.88 138.98 336.74 C 141.07 338.39 143.27 339.90 145.51 341.36 C 146.21 341.63 146.92 341.90 147.63 342.17 C 149.57 343.39 151.48 344.67 153.41 345.92 C 155.85 344.61 158.19 343.20 160.56 341.76 C 163.19 340.29 165.67 338.63 168.03 336.75 C 168.01 331.91 167.94 327.06 168.03 322.22 C 166.03 320.58 163.88 319.36 161.54 318.25 C 159.88 317.26 158.24 316.21 156.58 315.20 C 155.77 314.79 154.97 314.37 154.16 313.95 C 152.85 314.23 151.62 314.71 150.39 315.23 Z M 202.41 319.22 C 200.86 320.14 199.38 321.15 197.92 322.20 C 198.06 327.31 197.99 332.42 198.01 337.54 C 200.48 338.98 202.91 340.47 205.47 341.76 C 207.79 343.21 210.12 344.60 212.52 345.93 C 214.19 344.86 215.84 343.77 217.51 342.71 C 220.40 341.32 223.45 339.74 225.88 337.62 C 226.19 332.76 226.03 327.82 225.96 322.95 C 226.17 321.04 224.82 320.69 223.61 319.61 C 222.58 319.20 221.55 318.78 220.53 318.35 C 218.15 316.73 215.75 315.27 213.20 313.92 C 209.41 314.79 205.74 317.27 202.41 319.22 Z M 228.01 321.48 C 228.18 326.83 227.72 332.25 228.14 337.58 C 228.89 338.22 229.67 338.83 230.49 339.39 C 231.48 340.03 232.45 340.68 233.44 341.32 C 233.93 340.33 234.42 339.36 234.92 338.39 C 235.03 332.83 235.08 327.26 234.82 321.71 C 234.45 320.46 234.12 319.21 233.83 317.94 C 232.01 319.42 230.13 320.51 228.01 321.48 Z M 130.92 319.98 C 131.44 326.88 130.01 334.43 132.03 341.07 C 133.17 340.49 134.33 339.93 135.49 339.38 C 136.31 338.81 137.11 338.20 137.87 337.56 C 138.24 332.48 137.87 327.33 138.00 322.24 C 135.67 320.76 133.79 317.82 130.92 319.98 Z M 163.64 341.71 C 161.49 342.74 159.47 343.98 157.42 345.18 C 156.28 345.86 155.14 346.50 154.12 347.37 C 153.78 352.48 154.13 357.65 153.97 362.78 C 155.40 363.83 156.85 364.84 158.38 365.75 C 161.54 367.29 164.49 369.21 167.56 370.92 C 168.15 370.94 168.75 370.96 169.34 370.98 C 170.37 370.19 171.40 369.41 172.48 368.68 C 175.79 367.20 178.72 365.07 182.00 363.51 C 181.99 358.07 181.99 352.63 182.01 347.18 C 180.60 346.13 179.17 345.13 177.65 344.25 C 175.45 343.30 173.46 342.04 171.48 340.70 C 170.39 340.12 169.30 339.55 168.20 338.98 C 166.65 339.84 165.19 340.84 163.64 341.71 Z M 196.58 339.59 C 194.46 340.68 192.51 342.00 190.49 343.27 C 187.89 344.50 185.46 346.00 182.99 347.46 C 183.12 352.49 182.77 357.57 183.09 362.58 C 184.10 363.50 185.25 364.15 186.42 364.83 C 190.03 366.90 193.59 368.91 197.20 370.98 C 198.63 370.97 200.07 369.90 201.39 369.37 C 204.80 367.04 208.72 365.26 211.87 362.63 C 212.15 357.71 212.16 352.33 211.84 347.41 C 211.08 346.78 210.29 346.19 209.47 345.64 C 207.05 344.38 204.77 342.88 202.31 341.69 C 200.53 340.98 198.46 338.18 196.58 339.59 Z M 150.40 366.23 C 149.44 366.70 148.48 367.17 147.52 367.64 C 148.42 368.68 149.35 369.69 150.28 370.69 C 154.05 372.96 157.51 375.57 161.61 377.26 C 162.62 377.81 163.61 378.37 164.60 378.94 C 165.73 378.96 166.85 378.98 167.97 379.00 C 167.99 377.06 168.01 375.12 168.04 373.18 C 166.59 372.12 165.12 371.12 163.57 370.19 C 162.17 369.41 160.83 368.53 159.44 367.70 C 157.60 366.77 155.76 365.75 153.82 365.04 C 152.64 365.07 151.49 365.80 150.40 366.23 Z M 206.58 367.70 C 205.20 368.53 203.84 369.40 202.43 370.19 C 200.88 371.11 199.40 372.13 197.94 373.19 C 197.99 375.13 198.05 377.08 198.10 379.03 C 199.20 378.99 200.31 378.95 201.42 378.91 C 203.74 377.61 206.11 376.43 208.51 375.31 C 209.49 374.67 210.45 374.00 211.40 373.32 C 212.45 372.72 213.48 372.08 214.51 371.44 C 216.03 370.37 217.34 369.09 218.53 367.67 C 216.51 366.83 214.37 365.30 212.17 365.03 C 210.24 365.75 208.41 366.76 206.58 367.70 Z" id="p49" />
<path d="M 167.95 279.74 C 167.97 281.73 168.02 283.72 168.04 285.71 C 166.86 286.62 165.70 287.54 164.49 288.40 C 163.20 289.22 161.89 290.02 160.56 290.78 C 158.31 292.12 155.93 293.78 153.46 294.66 C 151.25 293.85 149.19 292.79 147.54 291.08 C 149.87 288.80 152.64 286.93 155.40 285.21 C 157.76 283.83 160.08 282.44 162.50 281.16 C 163.14 281.01 163.78 280.86 164.41 280.70 C 165.57 280.33 166.75 280.01 167.95 279.74 Z" id="p50" />
<path d="M 198.00 279.73 C 198.83 279.90 199.66 280.08 200.49 280.27 L 201.39 280.70 C 202.13 281.07 202.87 281.46 203.59 281.85 C 204.25 281.92 204.90 281.98 205.55 282.05 C 206.86 282.91 208.17 283.76 209.45 284.65 C 212.41 286.49 215.11 288.68 218.01 290.61 L 218.00 291.48 C 216.16 292.56 214.38 293.74 212.58 294.90 C 209.46 293.28 206.56 291.31 203.44 289.70 C 201.59 288.67 199.81 287.53 198.00 286.44 C 198.00 284.21 197.99 281.97 198.00 279.73 Z" id="p51" />
<path d="M 167.94 288.06 C 169.15 288.50 170.31 289.09 171.47 289.64 C 172.81 290.51 174.10 291.44 175.46 292.27 C 176.84 292.99 178.18 293.78 179.53 294.55 C 180.34 295.15 181.12 295.78 181.87 296.45 C 182.24 301.78 181.88 307.19 182.00 312.55 C 179.01 313.95 176.32 315.86 173.32 317.25 C 171.87 318.18 170.44 319.13 169.08 320.20 C 167.57 319.63 166.06 319.03 164.58 318.37 C 163.20 317.51 161.88 316.56 160.48 315.73 C 158.14 314.64 156.00 313.44 153.97 311.82 C 154.11 306.69 153.81 301.51 154.11 296.39 C 155.38 295.13 156.96 294.50 158.54 293.69 C 159.54 293.00 160.53 292.31 161.55 291.66 C 162.53 291.20 163.50 290.75 164.48 290.30 C 165.64 289.57 166.74 288.72 167.94 288.06 Z" id="p52" />
<path d="M 198.01 288.10 C 200.91 289.71 203.73 291.52 206.51 293.32 C 207.53 293.76 208.56 294.19 209.58 294.60 C 210.38 295.18 211.14 295.80 211.87 296.45 C 212.19 301.24 212.06 306.13 211.95 310.93 C 212.02 311.99 210.24 312.74 209.54 313.44 C 208.51 314.04 207.49 314.65 206.45 315.23 C 203.80 316.82 201.18 318.45 198.46 319.94 C 197.85 319.93 197.24 319.93 196.63 319.92 C 195.36 318.96 194.06 318.08 192.70 317.25 C 190.22 316.13 187.98 314.63 185.59 313.35 C 184.73 312.82 183.90 312.24 183.11 311.62 C 182.78 306.59 183.10 301.51 183.00 296.47 C 184.54 295.58 186.03 294.61 187.55 293.70 C 188.53 293.22 189.52 292.75 190.51 292.29 C 192.93 290.74 195.27 289.14 198.01 288.10 Z" id="p53" />
<path d="M 154.16 313.95 C 154.97 314.37 155.77 314.79 156.58 315.20 C 158.24 316.21 159.88 317.26 161.54 318.25 C 163.88 319.36 166.03 320.58 168.03 322.22 C 167.94 327.06 168.01 331.91 168.03 336.75 C 165.67 338.63 163.19 340.29 160.56 341.76 C 158.19 343.20 155.85 344.61 153.41 345.92 C 151.48 344.67 149.57 343.39 147.63 342.17 C 146.92 341.90 146.21 341.63 145.51 341.36 C 143.27 339.90 141.07 338.39 138.98 336.74 C 139.03 331.88 138.97 327.02 138.99 322.16 C 141.01 320.57 143.14 319.35 145.45 318.25 C 146.86 317.41 148.22 316.49 149.63 315.67 L 150.39 315.23 C 151.62 314.71 152.85 314.23 154.16 313.95 Z" id="p54" />
<path d="M 213.20 313.92 C 215.75 315.27 218.15 316.73 220.53 318.35 C 221.55 318.78 222.58 319.20 223.61 319.61 C 224.82 320.69 226.17 321.04 225.96 322.95 C 226.03 327.82 226.19 332.76 225.88 337.62 C 223.45 339.74 220.40 341.32 217.51 342.71 C 215.84 343.77 214.19 344.86 212.52 345.93 C 210.12 344.60 207.79 343.21 205.47 341.76 C 202.91 340.47 200.48 338.98 198.01 337.54 C 197.99 332.42 198.06 327.31 197.92 322.20 C 199.38 321.15 200.86 320.14 202.41 319.22 C 205.74 317.27 209.41 314.79 213.20 313.92 Z" id="p55" />
<path d="M 233.83 317.94 C 234.12 319.21 234.45 320.46 234.82 321.71 C 235.08 327.26 235.03 332.83 234.92 338.39 C 234.42 339.36 233.93 340.33 233.44 341.32 C 232.45 340.68 231.48 340.03 230.49 339.39 C 229.67 338.83 228.89 338.22 228.14 337.58 C 227.72 332.25 228.18 326.83 228.01 321.48 C 230.13 320.51 232.01 319.42 233.83 317.94 Z" id="p56" />
<path d="M 138.00 322.24 C 137.87 327.33 138.24 332.48 137.87 337.56 C 137.11 338.20 136.31 338.81 135.49 339.38 C 134.33 339.93 133.17 340.49 132.03 341.07 C 130.01 334.43 131.44 326.88 130.92 319.98 C 133.79 317.82 135.67 320.76 138.00 322.24 Z" id="p57" />
<path d="M 168.20 338.98 C 169.30 339.55 170.39 340.12 171.48 340.70 C 173.46 342.04 175.45 343.30 177.65 344.25 C 179.17 345.13 180.60 346.13 182.01 347.18 C 181.99 352.63 181.99 358.07 182.00 363.51 C 178.72 365.07 175.79 367.20 172.48 368.68 C 171.40 369.41 170.37 370.19 169.34 370.98 C 168.75 370.96 168.15 370.94 167.56 370.92 C 164.49 369.21 161.54 367.29 158.38 365.75 C 156.85 364.84 155.40 363.83 153.97 362.78 C 154.13 357.65 153.78 352.48 154.12 347.37 C 155.14 346.50 156.28 345.86 157.42 345.18 C 159.47 343.98 161.49 342.74 163.64 341.71 C 165.19 340.84 166.65 339.84 168.20 338.98 Z" id="p58" />
<path d="M 202.31 341.69 C 204.77 342.88 207.05 344.38 209.47 345.64 C 210.29 346.19 211.08 346.78 211.84 347.41 C 212.16 352.33 212.15 357.71 211.87 362.63 C 208.72 365.26 204.80 367.04 201.39 369.37 C 200.07 369.90 198.63 370.97 197.20 370.98 C 193.59 368.91 190.03 366.90 186.42 364.83 C 185.25 364.15 184.10 363.50 183.09 362.58 C 182.77 357.57 183.12 352.49 182.99 347.46 C 185.46 346.00 187.89 344.50 190.49 343.27 C 192.51 342.00 194.46 340.68 196.58 339.59 C 198.46 338.18 200.53 340.98 202.31 341.69 Z" id="p59" />
<path d="M 323.67 355.83 C 325.41 359.12 327.55 363.14 327.52 366.92 C 326.92 368.62 325.56 370.09 324.59 371.60 C 322.75 374.13 322.22 376.94 321.50 379.91 C 324.94 381.05 328.44 382.62 331.98 383.15 C 334.82 383.68 338.03 383.86 340.44 385.56 C 344.68 388.27 345.20 393.55 349.20 396.81 C 349.37 397.53 349.53 398.25 349.70 398.98 C 348.12 399.18 346.54 399.36 344.96 399.55 C 344.20 398.19 343.47 396.74 342.52 395.50 C 340.97 394.05 338.84 393.22 337.21 391.85 C 336.23 390.62 335.65 389.04 334.94 387.64 C 327.96 386.20 318.06 386.47 311.70 383.67 C 311.35 378.71 311.87 373.70 311.44 368.71 C 313.91 367.16 316.67 365.72 318.80 363.71 C 320.75 361.35 321.99 358.39 323.67 355.83 Z" id="p60" />
<path d="M 153.82 365.04 C 155.76 365.75 157.60 366.77 159.44 367.70 C 160.83 368.53 162.17 369.41 163.57 370.19 C 165.12 371.12 166.59 372.12 168.04 373.18 C 168.01 375.12 167.99 377.06 167.97 379.00 C 166.85 378.98 165.73 378.96 164.60 378.94 C 163.61 378.37 162.62 377.81 161.61 377.26 C 157.51 375.57 154.05 372.96 150.28 370.69 C 149.35 369.69 148.42 368.68 147.52 367.64 C 148.48 367.17 149.44 366.70 150.40 366.23 C 151.49 365.80 152.64 365.07 153.82 365.04 Z" id="p61" />
<path d="M 212.17 365.03 C 214.37 365.30 216.51 366.83 218.53 367.67 C 217.34 369.09 216.03 370.37 214.51 371.44 C 213.48 372.08 212.45 372.72 211.40 373.32 C 210.45 374.00 209.49 374.67 208.51 375.31 C 206.11 376.43 203.74 377.61 201.42 378.91 C 200.31 378.95 199.20 378.99 198.10 379.03 C 198.05 377.08 197.99 375.13 197.94 373.19 C 199.40 372.13 200.88 371.11 202.43 370.19 C 203.84 369.40 205.20 368.53 206.58 367.70 C 208.41 366.76 210.24 365.75 212.17 365.03 Z" id="p62" />
<path d="M 115.92 390.57 C 120.61 394.76 125.09 399.18 129.75 403.42 C 128.73 404.61 127.72 405.81 126.71 407.01 C 123.32 404.06 120.21 400.78 116.71 397.97 C 115.17 399.25 113.81 400.78 112.43 402.22 C 115.31 405.00 118.25 407.70 121.20 410.40 C 120.11 411.51 119.05 412.67 117.86 413.66 C 114.78 411.29 112.11 408.36 109.22 405.76 C 106.54 408.59 103.89 411.44 101.22 414.28 C 99.91 413.04 98.58 411.81 97.26 410.58 C 103.33 403.78 109.63 397.17 115.92 390.57 Z" id="p63" />
<path d="M 395.05 396.95 C 397.12 398.70 397.22 400.87 397.42 403.39 C 398.90 403.53 400.45 403.62 401.90 403.96 C 404.49 405.31 406.39 408.09 406.63 411.01 C 406.58 413.87 405.16 416.21 403.17 418.15 C 399.99 421.28 396.54 424.14 393.23 427.12 C 387.19 420.33 381.14 413.55 374.99 406.87 C 378.79 403.41 382.47 399.65 386.65 396.65 C 389.36 394.78 392.53 394.65 395.05 396.95 Z M 382.11 406.67 C 383.43 408.11 384.74 409.56 386.05 411.01 C 388.12 409.13 390.51 407.34 392.19 405.09 C 393.65 403.15 391.33 400.25 389.12 401.01 C 386.54 402.47 384.39 404.77 382.11 406.67 Z M 389.20 414.40 C 390.77 416.23 392.35 418.06 393.94 419.89 C 396.14 417.86 398.73 415.94 400.46 413.47 C 402.32 411.20 398.44 406.93 395.91 408.86 C 393.45 410.33 391.37 412.54 389.20 414.40 Z" id="p64" />
<path d="M 389.12 401.01 C 391.33 400.25 393.65 403.15 392.19 405.09 C 390.51 407.34 388.12 409.13 386.05 411.01 C 384.74 409.56 383.43 408.11 382.11 406.67 C 384.39 404.77 386.54 402.47 389.12 401.01 Z" id="p65" />
<path d="M 400.46 413.47 C 398.73 415.94 396.14 417.86 393.94 419.89 C 392.35 418.06 390.77 416.23 389.20 414.40 C 391.37 412.54 393.45 410.33 395.91 408.86 C 398.44 406.93 402.32 411.20 400.46 413.47 Z" id="p66" />
<path d="M 129.51 410.63 C 138.00 406.44 149.34 414.68 148.04 424.03 C 147.23 429.51 143.40 435.03 138.28 437.31 C 129.94 441.23 118.72 433.22 119.93 424.00 C 120.58 418.47 124.52 413.08 129.51 410.63 Z M 132.37 415.41 C 128.77 417.12 125.39 421.96 125.31 425.98 C 125.40 431.29 131.52 434.76 136.19 432.23 C 139.58 430.09 142.46 426.07 142.67 421.99 C 142.73 416.97 136.96 413.14 132.37 415.41 Z" id="p67" />
<path d="M 370.81 409.99 C 374.04 414.20 376.95 418.66 380.05 422.97 C 381.86 425.54 383.78 428.76 383.25 432.03 C 382.50 436.37 378.77 439.19 375.03 440.97 C 371.16 442.59 367.15 441.80 364.44 438.56 C 360.33 433.43 356.76 427.83 352.93 422.49 C 354.48 421.40 356.02 420.31 357.57 419.23 C 361.38 424.45 364.82 430.09 368.94 435.06 C 371.53 437.86 375.52 435.87 377.18 433.14 C 378.54 431.11 377.06 428.81 375.96 427.06 C 372.76 422.38 369.43 417.79 366.31 413.05 C 367.80 412.02 369.28 410.97 370.81 409.99 Z" id="p68" />
<path d="M 132.37 415.41 C 136.96 413.14 142.73 416.97 142.67 421.99 C 142.46 426.07 139.58 430.09 136.19 432.23 C 131.52 434.76 125.40 431.29 125.31 425.98 C 125.39 421.96 128.77 417.12 132.37 415.41 Z" id="p69" />
<path d="M 157.17 426.18 C 164.99 423.93 174.70 430.53 174.20 439.01 C 174.02 444.14 170.99 449.88 166.66 452.71 C 158.90 458.13 146.21 451.53 146.38 442.01 C 146.43 435.55 150.70 428.10 157.17 426.18 Z M 158.44 431.47 C 154.73 433.25 152.26 438.00 151.99 441.98 C 151.34 447.68 158.70 451.62 163.26 448.38 C 166.23 446.33 168.65 441.61 168.68 438.02 C 168.82 433.09 162.84 429.44 158.44 431.47 Z" id="p70" />
<path d="M 339.64 429.13 C 342.86 435.78 346.19 442.39 349.31 449.10 C 353.37 447.23 357.37 445.23 361.40 443.27 C 362.12 444.79 362.85 446.30 363.58 447.81 C 357.84 450.52 352.25 453.50 346.45 456.09 C 342.59 447.85 338.52 439.72 334.55 431.53 C 336.25 430.73 337.94 429.93 339.64 429.13 Z" id="p71" />
<path d="M 158.44 431.47 C 162.84 429.44 168.82 433.09 168.68 438.02 C 168.65 441.61 166.23 446.33 163.26 448.38 C 158.70 451.62 151.34 447.68 151.99 441.98 C 152.26 438.00 154.73 433.25 158.44 431.47 Z" id="p72" />
<path d="M 179.13 434.35 C 186.00 436.45 192.75 439.04 199.58 441.28 C 199.05 442.81 198.53 444.33 198.01 445.86 C 195.45 445.01 192.91 444.12 190.38 443.20 C 187.96 450.30 185.44 457.37 183.05 464.47 C 181.24 463.85 179.44 463.21 177.65 462.55 C 180.30 455.59 182.59 448.47 185.01 441.42 C 182.42 440.52 179.84 439.62 177.27 438.66 C 177.86 437.22 178.41 435.73 179.13 434.35 Z" id="p73" />
<path d="M 327.02 436.03 C 330.72 436.67 332.36 439.35 334.47 442.09 C 332.75 442.71 331.03 443.33 329.30 443.92 C 328.21 443.03 327.11 441.95 325.85 441.33 C 321.68 440.20 316.54 443.41 316.66 447.99 C 316.76 451.72 318.22 456.40 321.44 458.61 C 324.19 460.60 328.18 459.77 330.48 457.49 C 331.74 456.15 331.94 453.81 332.42 452.10 C 334.11 451.68 335.80 451.26 337.50 450.86 C 337.45 454.33 337.61 457.38 335.15 460.14 C 330.95 464.86 322.52 467.06 317.31 462.71 C 312.78 458.85 310.32 451.85 311.16 446.00 C 312.28 439.00 320.61 435.26 327.02 436.03 Z" id="p74" />
<path d="M 202.17 442.54 C 206.48 443.14 210.76 444.21 215.01 445.15 C 218.01 445.92 221.38 447.49 221.68 451.00 C 222.11 454.47 220.50 456.60 217.90 458.61 C 222.06 462.92 220.10 470.84 214.00 471.82 C 208.24 472.47 202.10 469.93 196.38 469.14 C 198.26 460.29 199.85 451.28 202.17 442.54 Z M 205.05 453.83 C 207.83 454.37 210.71 455.27 213.54 455.30 C 215.89 455.02 216.59 452.50 215.37 450.66 C 212.68 449.18 209.41 448.64 206.39 448.26 C 205.83 450.06 205.46 451.98 205.05 453.83 Z M 202.56 465.36 C 205.83 465.89 210.23 467.79 213.36 466.35 C 214.40 464.57 215.19 462.13 213.15 460.71 C 210.39 459.44 207.21 458.88 204.21 458.53 C 203.49 460.73 203.05 463.10 202.56 465.36 Z" id="p75" />
<path d="M 281.29 447.09 C 282.20 454.45 283.33 461.78 284.34 469.12 C 288.77 468.56 293.20 467.91 297.63 467.36 C 297.82 468.99 298.01 470.63 298.21 472.26 C 291.96 473.19 285.72 474.14 279.44 474.85 C 278.24 465.86 276.94 456.88 275.68 447.89 C 277.55 447.62 279.42 447.36 281.29 447.09 Z" id="p76" />
<path d="M 206.39 448.26 C 209.41 448.64 212.68 449.18 215.37 450.66 C 216.59 452.50 215.89 455.02 213.54 455.30 C 210.71 455.27 207.83 454.37 205.05 453.83 C 205.46 451.98 205.83 450.06 206.39 448.26 Z" id="p77" />
<path d="M 234.82 448.02 C 236.97 448.23 239.13 448.44 241.28 448.64 C 243.73 457.98 246.19 467.32 248.68 476.64 C 246.75 476.49 244.82 476.34 242.88 476.19 C 242.41 474.26 241.93 472.33 241.46 470.40 C 237.94 470.10 234.43 469.82 230.91 469.47 C 230.17 471.30 229.41 473.12 228.68 474.95 C 226.71 474.77 224.74 474.59 222.78 474.42 C 226.73 465.59 230.82 456.82 234.82 448.02 Z M 232.85 465.06 C 235.36 465.28 237.86 465.52 240.36 465.78 C 239.46 461.82 238.55 457.85 237.59 453.90 C 235.91 457.58 234.34 461.31 232.85 465.06 Z" id="p78" />
<path d="M 253.53 449.13 C 255.42 449.06 257.31 449.00 259.20 448.94 C 259.28 456.37 259.69 463.79 259.88 471.21 C 264.35 471.01 268.82 470.91 273.28 470.73 C 273.31 472.43 273.34 474.14 273.37 475.84 C 267.08 476.00 260.80 476.23 254.51 476.44 C 254.07 467.34 253.86 458.23 253.53 449.13 Z" id="p79" />
<path d="M 237.59 453.90 C 238.55 457.85 239.46 461.82 240.36 465.78 C 237.86 465.52 235.36 465.28 232.85 465.06 C 234.34 461.31 235.91 457.58 237.59 453.90 Z" id="p80" />
<path d="M 204.21 458.53 C 207.21 458.88 210.39 459.44 213.15 460.71 C 215.19 462.13 214.40 464.57 213.36 466.35 C 210.23 467.79 205.83 465.89 202.56 465.36 C 203.05 463.10 203.49 460.73 204.21 458.53 Z" id="p81" />
</defs>
<g stroke-width="10pt">
<use stroke="#fefefe" xlink:href="#p0" />
<use stroke="#fefefe" xlink:href="#p1" />
<use stroke="#fefefe" xlink:href="#p2" />
<use stroke="#21201e" xlink:href="#p3" />
<use stroke="#fefefe" xlink:href="#p4" />
<use stroke="#21201e" xlink:href="#p5" />
<use stroke="#21201e" xlink:href="#p6" />
<use stroke="#21201e" xlink:href="#p7" />
<use stroke="#21201e" xlink:href="#p8" />
<use stroke="#fefefe" xlink:href="#p9" />
<use stroke="#21201e" xlink:href="#p10" />
<use stroke="#fefefe" xlink:href="#p11" />
<use stroke="#21201e" xlink:href="#p12" />
<use stroke="#fefefe" xlink:href="#p13" />
<use stroke="#21201e" xlink:href="#p14" />
<use stroke="#21201e" xlink:href="#p15" />
<use stroke="#fefefe" xlink:href="#p16" />
<use stroke="#fefefe" xlink:href="#p17" />
<use stroke="#21201e" xlink:href="#p18" />
<use stroke="#21201e" xlink:href="#p19" />
<use stroke="#fefefe" xlink:href="#p20" />
<use stroke="#024190" xlink:href="#p21" />
<use stroke="#024190" xlink:href="#p22" />
<use stroke="#21201e" xlink:href="#p23" />
<use stroke="#fefefe" xlink:href="#p24" />
<use stroke="#21201e" xlink:href="#p25" />
<use stroke="#024190" xlink:href="#p26" />
<use stroke="#21201e" xlink:href="#p27" />
<use stroke="#024190" xlink:href="#p28" />
<use stroke="#fefefe" xlink:href="#p29" />
<use stroke="#21201e" xlink:href="#p30" />
<use stroke="#21201e" xlink:href="#p31" />
<use stroke="#21201e" xlink:href="#p32" />
<use stroke="#fefefe" xlink:href="#p33" />
<use stroke="#fefefe" xlink:href="#p34" />
<use stroke="#fefefe" xlink:href="#p35" />
<use stroke="#fefefe" xlink:href="#p36" />
<use stroke="#fefefe" xlink:href="#p37" />
<use stroke="#21201e" xlink:href="#p38" />
<use stroke="#21201e" xlink:href="#p39" />
<use stroke="#024190" xlink:href="#p40" />
<use stroke="#21201e" xlink:href="#p41" />
<use stroke="#21201e" xlink:href="#p42" />
<use stroke="#024190" xlink:href="#p43" />
<use stroke="#024190" xlink:href="#p44" />
<use stroke="#fefefe" xlink:href="#p45" />
<use stroke="#024190" xlink:href="#p46" />
<use stroke="#024190" xlink:href="#p47" />
<use stroke="#21201e" xlink:href="#p48" />
<use stroke="#21201e" xlink:href="#p49" />
<use stroke="#fefefe" xlink:href="#p50" />
<use stroke="#fefefe" xlink:href="#p51" />
<use stroke="#fefefe" xlink:href="#p52" />
<use stroke="#fefefe" xlink:href="#p53" />
<use stroke="#fefefe" xlink:href="#p54" />
<use stroke="#fefefe" xlink:href="#p55" />
<use stroke="#fefefe" xlink:href="#p56" />
<use stroke="#fefefe" xlink:href="#p57" />
<use stroke="#fefefe" xlink:href="#p58" />
<use stroke="#fefefe" xlink:href="#p59" />
<use stroke="#21201e" xlink:href="#p60" />
<use stroke="#fefefe" xlink:href="#p61" />
<use stroke="#fefefe" xlink:href="#p62" />
<use stroke="#21201e" xlink:href="#p63" />
<use stroke="#21201e" xlink:href="#p64" />
<use stroke="#fefefe" xlink:href="#p65" />
<use stroke="#fefefe" xlink:href="#p66" />
<use stroke="#21201e" xlink:href="#p67" />
<use stroke="#21201e" xlink:href="#p68" />
<use stroke="#fefefe" xlink:href="#p69" />
<use stroke="#21201e" xlink:href="#p70" />
<use stroke="#21201e" xlink:href="#p71" />
<use stroke="#fefefe" xlink:href="#p72" />
<use stroke="#21201e" xlink:href="#p73" />
<use stroke="#21201e" xlink:href="#p74" />
<use stroke="#21201e" xlink:href="#p75" />
<use stroke="#21201e" xlink:href="#p76" />
<use stroke="#fefefe" xlink:href="#p77" />
<use stroke="#21201e" xlink:href="#p78" />
<use stroke="#21201e" xlink:href="#p79" />
<use stroke="#fefefe" xlink:href="#p80" />
<use stroke="#fefefe" xlink:href="#p81" />
</g>
<g>
<use fill="#fefefe" xlink:href="#p0" />
<use fill="#21201e" xlink:href="#p1" />
<use fill="#fefefe" xlink:href="#p2" />
<use fill="#21201e" xlink:href="#p3" />
<use fill="#fefefe" xlink:href="#p4" />
<use fill="#21201e" xlink:href="#p5" />
<use fill="#21201e" xlink:href="#p6" />
<use fill="#21201e" xlink:href="#p7" />
<use fill="#21201e" xlink:href="#p8" />
<use fill="#fefefe" xlink:href="#p9" />
<use fill="#21201e" xlink:href="#p10" />
<use fill="#fefefe" xlink:href="#p11" />
<use fill="#21201e" xlink:href="#p12" />
<use fill="#fefefe" xlink:href="#p13" />
<use fill="#21201e" xlink:href="#p14" />
<use fill="#21201e" xlink:href="#p15" />
<use fill="#fefefe" xlink:href="#p16" />
<use fill="#fefefe" xlink:href="#p17" />
<use fill="#21201e" xlink:href="#p18" />
<use fill="#21201e" xlink:href="#p19" />
<use fill="#fefefe" xlink:href="#p20" />
<use fill="#024190" xlink:href="#p21" />
<use fill="#024190" xlink:href="#p22" />
<use fill="#21201e" xlink:href="#p23" />
<use fill="#fefefe" xlink:href="#p24" />
<use fill="#21201e" xlink:href="#p25" />
<use fill="#024190" xlink:href="#p26" />
<use fill="#21201e" xlink:href="#p27" />
<use fill="#024190" xlink:href="#p28" />
<use fill="#fefefe" xlink:href="#p29" />
<use fill="#21201e" xlink:href="#p30" />
<use fill="#21201e" xlink:href="#p31" />
<use fill="#21201e" xlink:href="#p32" />
<use fill="#fefefe" xlink:href="#p33" />
<use fill="#fefefe" xlink:href="#p34" />
<use fill="#fefefe" xlink:href="#p35" />
<use fill="#fefefe" xlink:href="#p36" />
<use fill="#fefefe" xlink:href="#p37" />
<use fill="#21201e" xlink:href="#p38" />
<use fill="#21201e" xlink:href="#p39" />
<use fill="#024190" xlink:href="#p40" />
<use fill="#21201e" xlink:href="#p41" />
<use fill="#21201e" xlink:href="#p42" />
<use fill="#024190" xlink:href="#p43" />
<use fill="#024190" xlink:href="#p44" />
<use fill="#fefefe" xlink:href="#p45" />
<use fill="#024190" xlink:href="#p46" />
<use fill="#024190" xlink:href="#p47" />
<use fill="#21201e" xlink:href="#p48" />
<use fill="#21201e" xlink:href="#p49" />
<use fill="#fefefe" xlink:href="#p50" />
<use fill="#fefefe" xlink:href="#p51" />
<use fill="#fefefe" xlink:href="#p52" />
<use fill="#fefefe" xlink:href="#p53" />
<use fill="#fefefe" xlink:href="#p54" />
<use fill="#fefefe" xlink:href="#p55" />
<use fill="#fefefe" xlink:href="#p56" />
<use fill="#fefefe" xlink:href="#p57" />
<use fill="#fefefe" xlink:href="#p58" />
<use fill="#fefefe" xlink:href="#p59" />
<use fill="#21201e" xlink:href="#p60" />
<use fill="#fefefe" xlink:href="#p61" />
<use fill="#fefefe" xlink:href="#p62" />
<use fill="#21201e" xlink:href="#p63" />
<use fill="#21201e" xlink:href="#p64" />
<use fill="#fefefe" xlink:href="#p65" />
<use fill="#fefefe" xlink:href="#p66" />
<use fill="#21201e" xlink:href="#p67" />
<use fill="#21201e" xlink:href="#p68" />
<use fill="#fefefe" xlink:href="#p69" />
<use fill="#21201e" xlink:href="#p70" />
<use fill="#21201e" xlink:href="#p71" />
<use fill="#fefefe" xlink:href="#p72" />
<use fill="#21201e" xlink:href="#p73" />
<use fill="#21201e" xlink:href="#p74" />
<use fill="#21201e" xlink:href="#p75" />
<use fill="#21201e" xlink:href="#p76" />
<use fill="#fefefe" xlink:href="#p77" />
<use fill="#21201e" xlink:href="#p78" />
<use fill="#21201e" xlink:href="#p79" />
<use fill="#fefefe" xlink:href="#p80" />
<use fill="#fefefe" xlink:href="#p81" />
</g>
</svg>